<?xml version="1.0" encoding="utf-8"?>
<!-- Generator: Adobe Illustrator 17.1.0, SVG Export Plug-In . SVG Version: 6.00 Build 0)  -->
<svg version="1.2" baseProfile="tiny" xmlns="http://www.w3.org/2000/svg" xmlns:xlink="http://www.w3.org/1999/xlink" x="0px"
	 y="0px" width="64px" height="64px" viewBox="0 0 64 64" xml:space="preserve">
<g id="_x36_4px_Boxes">
	<rect width="64" height="64"/>
</g>
<g id="Production_diap">
	<path fill="#FFFFFF" d="M48.2229,12.7986c-2.1699-4.0449-3.8943-6.0782-9.9043-3.3569c-3.5366-2.8429-5.0566-4.4131-10.834-2.7698
		c-4.0148,1.1417-9.7102,3.4678-10.8948,5.0098c-1.4537,1.8923-3.4519,7.9525-3.5647,9.5541
		c-0.2003,2.8358,0.8281,5.8619,2.0646,10.0859C14.3611,31.7283,14,32.8939,14,35.002c0,2.182,0.5586,5.6819,3.3516,6.5459
		C18,49,21.2852,52.4126,25.8782,56.2928c2.6936,2.2758,9.55,2.2769,12.2437,0C42.7148,52.4126,46,49,46.6484,41.5479
		C49.4414,40.6838,50,37.184,50,35.002c0-2.158-0.3762-3.3333-1.14-3.7124c0.5436-2.2961,1.004-4.5325,1.8073-7.835
		C51.6831,19.2811,50.1694,16.4275,48.2229,12.7986z M48.6058,22.7799c-0.3906,1.6066-0.7181,2.9544-0.9972,4.1913
		c-1.1579,5.131-1.8635,7.8355-2.3409,9.2085C44.9177,37.186,44,37.0679,44,37.0679V25.4785l-6.7752-3.703
		c1.3621-1.1615,2.6017-2.5276,3.66-4.1688c0.1922-0.2981,0.0473-0.3945-0.0316-0.4419C29.9438,24.3526,21.4082,24.6914,20,24.6971
		v12.3708c0,0-0.9177,0.1181-1.2677-0.8882c-1.067-3.0684-1.5824-5.4336-1.9977-6.8318c-1.0069-3.3904-1.732-5.84-1.5821-7.9626
		c0.0848-1.2112,1.9815-6.9082,3.1257-8.3976c1.0153-1.1711,9.6621-4.8261,13.1813-4.8261c1.7211,0,2.6108,0.649,4.9297,2.525
		l1.6501,1.3286l1.3-0.5888c1.5357-0.6954,2.7588-1.0475,3.6366-1.0475c1.0771,0,1.7876,0.4725,3.3624,3.4196
		C48.1786,17.2425,49.4348,19.3705,48.6058,22.7799z"/>
</g>
</svg>
