<?xml version="1.0" encoding="utf-8"?>
<!-- Generator: Adobe Illustrator 17.1.0, SVG Export Plug-In . SVG Version: 6.00 Build 0)  -->
<svg version="1.2" baseProfile="tiny" xmlns="http://www.w3.org/2000/svg" xmlns:xlink="http://www.w3.org/1999/xlink" x="0px"
	 y="0px" width="64px" height="64px" viewBox="0 0 64 64" xml:space="preserve">
<g id="_x36_4px_Boxes">
	<rect width="64" height="64"/>
</g>
<g id="Production_diap">
	<g>
		<path fill="#FFFFFF" d="M52.6128,44.1104c-2.2923-2.4929-9.0969-4.696-11.7958-5.4961c0.0681,0.4524,0.134,0.9131,0.1947,1.376
			c0.834,6.3721-8.0596,11.8838-8.4385,12.1152c-0.1758,0.1074-0.375,0.1611-0.5732,0.1611s-0.3975-0.0537-0.5732-0.1611
			c-0.3789-0.2314-9.2725-5.7432-8.4385-12.1152c0.0607-0.4629,0.1266-0.9236,0.1947-1.3761
			c-2.6989,0.8002-9.5035,3.0033-11.7958,5.4962C8.5137,47.2344,7,59,7,59h25h25C57,59,55.4863,47.2344,52.6128,44.1104z"/>
		<path fill="#FFFFFF" d="M21.459,27.9692c0.4278,3.1877,2.1379,6.0856,4.3621,8.283c-0.205,1.0925-0.4637,2.5928-0.6512,4.0232
			c-0.4979,3.7977,4.3223,7.8955,6.8301,9.583c3.3478-2.2528,7.3307-5.9913,6.7496-10.1361
			c-3.6962,2.9641-7.6596,2.0292-9.6271-0.9867l-0.0103-0.001c-0.0409-0.062-0.069-0.1147-0.1054-0.1737
			c-0.0273-0.0444-0.0571-0.0829-0.0844-0.1273c2.2642,0.7002,5.9133,0.5068,7.4043-0.5836C39.4221,35.5863,42,32,42.5408,27.9692
			C44.4233,27.4653,44.8,25.4238,44.8,24.151c0-1.2726-0.2581-1.9611-0.7841-2.1743c-0.2396-0.0968-0.4733-0.1002-0.6844-0.0665
			c0.4835-3.3569,1.1956-9.8115-0.0615-12.1355c-1.5283-2.8256-3.348-4.2173-6.8501-3.2908
			c-2.297-1.2793-3.8609-2.0801-7.8854-0.9281c-2.7963,0.8003-5.8569,2.1073-7.4696,4.288
			c-1.7083,2.3104-0.9725,8.7151-0.4395,12.0599c-0.2-0.0259-0.4181-0.0172-0.6414,0.073C19.4579,22.1899,19.2,22.8784,19.2,24.151
			C19.2,25.4238,19.5766,27.4653,21.459,27.9692z M21.8,13.9673c0.0096-2.3634,0.4797-4.7164,7.2266-6.6492
			c1.1475-0.3287,2.0848-0.488,2.8677-0.488c1.4855,0,2.415,0.5846,4.34,1.6565c0.771-0.2039,1.5172-0.4343,2.301-0.4343
			c2.0178,0,3.3405,2.2168,3.5625,4.2244c0.3478,3.1465-0.284,8.9724-0.8329,11.0748C41.01,24.3281,40,24.1582,40,24.1582
			c-0.0024,0.0011,0-5.509,0-5.509l-5.2749-3.8501C30.077,17.332,26.043,17.9043,24,18.05c0,0,0.0026,6.1097,0,6.1082
			c0,0-1.0099,0.1699-1.265-0.8068c-0.2253-0.8632-0.6535-3.0402-0.8412-6.2303C21.8289,16.2078,21.7936,15.5227,21.8,13.9673z"/>
	</g>
</g>
</svg>
