<?xml version="1.0" encoding="utf-8"?>
<!-- Generator: Adobe Illustrator 17.1.0, SVG Export Plug-In . SVG Version: 6.00 Build 0)  -->
<svg version="1.2" baseProfile="tiny" xmlns="http://www.w3.org/2000/svg" xmlns:xlink="http://www.w3.org/1999/xlink" x="0px"
	 y="0px" width="64px" height="64px" viewBox="0 0 64 64" xml:space="preserve">
<g id="_x36_4px_Boxes">
	<rect width="64" height="64"/>
</g>
<g id="Production_diap">
	<g>
		<path fill="#FFFFFF" d="M52.6128,44.1104c-1.6-1.74-6.4717-3.6503-9.5366-4.729c0.1782,1.512,0.0619,3.2687-0.7061,5.1606
			c-2.8857,7.1055-9.3945,12.1582-9.6699,12.3701c-0.2061,0.1582-0.4531,0.2383-0.7002,0.2383s-0.4941-0.0801-0.7002-0.2383
			c-0.2754-0.2119-6.7842-5.2646-9.6699-12.3701c-0.7687-1.8938-0.8845-3.6521-0.7056-5.1649
			c-2.7667,0.9977-7.9722,3.0314-9.5371,4.7333C8.5137,47.2344,7,59,7,59h25h25C57,59,55.4863,47.2344,52.6128,44.1104z"/>
		<path fill="#FFFFFF" d="M34.6219,51.9944c1.9344-2.0438,4.2517-4.9563,5.6174-8.3176c0.8662-2.1332,0.6755-4.0686,0.2496-5.4996
			c-0.7872,0.7838-1.6058,1.5905-2.416,2.1876C36.2065,41.7406,33.4667,42.1,31.9998,42.1c-1.467,0-4.2068-0.3594-6.0728-1.7351
			c-0.5311-0.3915-1.4317-1.205-2.4236-2.1842c-0.4244,1.4271-0.6108,3.3567,0.2574,5.4961
			c1.3687,3.3691,3.6846,6.2803,5.6174,8.3214c0.3569-1.1976,0.7892-2.2877,1.2429-3.5649
			c-0.9783-1.4999-2.2961-3.8301-2.2961-3.8301s1.1221-1.8278,3.675-1.8278s3.675,1.8278,3.675,1.8278s-1.3177,2.3302-2.2961,3.8301
			C33.8348,49.7168,34.2662,50.8015,34.6219,51.9944z"/>
		<path fill="#FFFFFF" d="M21.459,27.9692C22,32,24.5778,35.5863,27.6732,37.85c1.8154,1.3281,6.8375,1.3281,8.6535,0
			C39.4221,35.5863,42,32,42.5408,27.9692C44.4233,27.4653,44.8,25.4238,44.8,24.151c0-1.2726-0.2581-1.9611-0.7841-2.1743
			c-0.2396-0.0968-0.4733-0.1002-0.6844-0.0665c0.4835-3.3569,1.1956-9.8115-0.0615-12.1355
			c-1.5283-2.8256-3.348-4.2173-6.8501-3.2908c-2.297-1.2793-3.8609-2.0801-7.8854-0.9281
			c-2.7963,0.8003-5.8569,2.1073-7.4696,4.288c-1.7083,2.3104-0.9725,8.7151-0.4395,12.0599c-0.2-0.0259-0.4181-0.0172-0.6414,0.073
			C19.4579,22.1899,19.2,22.8784,19.2,24.151C19.2,25.4238,19.5766,27.4653,21.459,27.9692z M29.0267,7.3181
			c1.1475-0.3287,2.0848-0.488,2.8677-0.488c1.4855,0,2.415,0.5846,4.34,1.6565c0.771-0.2036,1.5172-0.4343,2.301-0.4343
			c2.063,0,3.3826,2.2739,3.5846,4.4421c0.2972,3.1906-0.3185,8.8022-0.855,10.8571C41.01,24.3281,40,24.1582,40,24.1582
			c-0.0024,0.0011,0-5.509,0-5.509l-5.2749-3.8501C30.077,17.332,26.043,17.9043,24,18.05c0,0,0.0026,6.1097,0,6.1082
			c0,0-1.0099,0.1699-1.265-0.8068c-0.2253-0.8632-0.6535-3.0402-0.8412-6.2303c-0.065-0.9133-0.0938-1.5984-0.0938-3.1538
			C21.8194,11.604,22.2797,9.2507,29.0267,7.3181z"/>
	</g>
</g>
</svg>
