<?xml version="1.0" encoding="utf-8"?>
<!-- Generator: Adobe Illustrator 17.1.0, SVG Export Plug-In . SVG Version: 6.00 Build 0)  -->
<svg version="1.2" baseProfile="tiny" xmlns="http://www.w3.org/2000/svg" xmlns:xlink="http://www.w3.org/1999/xlink" x="0px"
	 y="0px" width="64px" height="64px" viewBox="0 0 64 64" xml:space="preserve">
<g id="_x36_4px_Boxes">
	<rect width="64" height="64"/>
</g>
<g id="Production_diap">
	<path fill="#FFFFFF" d="M46.9612,10.6943C43.1714,8.4705,38.911,9.469,38.911,9.469s-4.0951-4.5496-11.2587-3.2284
		C15.9646,8.3965,7,20.0692,7,35.2488c0,4.9364,0.7249,8.7153,2.3936,15.3527c0.0573,0.2277,0.1897,0.4391,0.3737,0.5753
		c4.0923,3.0457,9.5714,3.2266,14.6049,2.3333c2.2227,2.1946,4.8586,3.49,7.6235,3.49c2.731,0,5.3359-1.2639,7.5413-3.4087
		c5.4226,0.9108,11.2323,0.3505,14.7296-2.4453c0.17-0.1354,0.2893-0.337,0.3429-0.5513C56.2816,43.9458,57,40.1899,57,35.2488
		C57,25.1531,52.9041,14.1815,46.9612,10.6943z M52.5752,49.6604c-1.9307,1.377-4.8691,2.1301-8.3379,2.1301
		c-0.9738,0-1.9695-0.0623-2.9648-0.1786c2.3429-3.1305,3.9954-7.3954,4.4493-12.2147c0.2269-2.4103,0.3116-4.6116,0.2665-6.624
		c-3.1266-1.2596-6.6044-3.3159-9.0137-6.6206c1.0459-2.3469,1.6904-4.5771,1.8723-5.6829c0.061-0.3723-0.0919-0.4653-0.2134-0.4697
		C34.3967,27.2119,25.8391,32.4009,18,34.7512c0.0277,1.4573,0.1157,3.0024,0.2708,4.646c0.4503,4.7819,2.0815,9.0164,4.3953,12.14
		c-1.0798,0.1439-2.186,0.2366-3.2949,0.2366c-3.207,0-5.8779-0.715-7.9482-2.1261c-1.5361-6.1437-2.2227-9.7456-2.2227-14.3988
		c0-13.7528,7.751-24.788,18.8496-26.8356c0.7344-0.1353,1.4668-0.2039,2.1768-0.2039c4.46,0,7.0273,2.7144,7.0527,2.7408
		l0.8691,0.9669l1.2637-0.2961c0,0,0.7588-0.1658,1.8604-0.1658c1.1973,0,2.9629,0.1981,4.5781,1.1464
		c5.0186,2.9449,8.9492,12.8927,8.9492,22.6472C54.7998,39.9099,54.1123,43.5109,52.5752,49.6604z"/>
</g>
</svg>
