<?xml version="1.0" encoding="utf-8"?>
<!-- Generator: Adobe Illustrator 17.1.0, SVG Export Plug-In . SVG Version: 6.00 Build 0)  -->
<svg version="1.2" baseProfile="tiny" xmlns="http://www.w3.org/2000/svg" xmlns:xlink="http://www.w3.org/1999/xlink" x="0px"
	 y="0px" width="64px" height="64px" viewBox="0 0 64 64" xml:space="preserve">
<g id="_x36_4px_Boxes">
	<rect width="64" height="64"/>
</g>
<g id="Production_diap">
	<g>
		<path fill="#FFFFFF" d="M51.7886,47.2479c-1.6207-1.6938-5.5841-3.239-8.6-4.2333c-1.838,4.1793-6.1384,7.7211-10.3201,9.8234
			c-0.5444,0.2737-1.1924,0.2737-1.7368,0c-4.1668-2.095-8.4771-5.6323-10.3202-9.8234c-3.0159,0.9943-6.9793,2.5394-8.6,4.2333
			C9.4531,50.1317,8,58.9901,8,58.9901h48C56,58.9901,54.5469,50.1317,51.7886,47.2479z"/>
		<path fill="#FFFFFF" d="M16.8198,40.7977c1.7396-0.616,4.2083-1.0776,7.1108-1.3762c0.1226-0.364,0.2512-1.2043,0.3669-2.2488
			c-2.5359,0.2379-4.7763,0.5944-6.5778,1.0596c-0.9695-4.3506-1.5373-8.7529-1.5373-12.0234
			c0-9.6328,5.3839-17.3828,13.0916-18.8467c4.1642-0.7894,6.0449,1.2434,7.046,2.1865c0.9196-0.2006,1.4136-0.3594,2.3548-0.3594
			c0.7827,0,1.9335,0.1318,2.9747,0.7607c3.4011,2.0557,6.1675,9.3486,6.1675,16.2588c0,3.2705-0.5676,7.6738-1.5373,12.0234
			c-1.8015-0.4652-4.0417-0.8217-6.5774-1.0596c0.1155,1.0426,0.2441,1.8824,0.3673,2.2488
			c2.9023,0.2986,5.3707,0.7603,7.1105,1.3762c0.3719,0.1318,0.7648-0.1191,0.8679-0.5381C49.2957,35.1727,50,29.9345,50,26.2089
			c0-7.4844-2.9487-15.5591-7.2281-18.145c-2.7283-1.6486-5.7955-0.9082-5.7955-0.9082s-2.9491-2.9351-8.1068-1.9556
			C20.4548,6.7987,14,14.955,14,26.2089c0,3.7256,0.7043,8.9639,1.9518,14.0508C16.0546,40.6786,16.4478,40.9296,16.8198,40.7977z"
			/>
		<path fill="#FFFFFF" d="M23.2383,42.7929c2.2549,4.2812,7.2031,7.1045,8.7617,7.9131c1.5586-0.8086,6.5068-3.6318,8.7617-7.9131
			c-1.165-0.4248-2.6279-1.1758-3.0908-2.3564c-0.1-0.2546-0.1895-0.6229-0.2715-1.0459c-1.6435,1.1204-3.6276,1.4824-5.1955,1.1971
			c-2.2166-0.4034-2.9756-2.0549-3.2561-3.2426c0.001,0.0005,0.002,0.0002,0.0029,0.0007c1.7443,0.9146,4.9101,0.7581,6.6479-0.3518
			c2.4406-1.5586,4.6598-6.002,5.173-9.1846c0.2564-1.5869,0.2568-3.0146,0.1931-4.0479c-2.1671-1.3889-4.0832-3.2672-5.4399-6.0227
			c0.5328-0.9584,1.0043-1.8125,1.4127-2.5613c0.3547-0.6504-0.0205-0.6825-0.0205-0.6825
			c-3.2241,3.4823-9.4097,7.0905-13.8534,8.9003c-0.0865,1.0703-0.1259,2.6816,0.1584,4.4141
			c0.42,2.5625,1.6376,5.4644,3.8314,7.8706c-0.1412,1.7384-0.3759,3.8726-0.7243,4.7573
			C25.8652,41.6181,24.4033,42.3681,23.2383,42.7929z"/>
	</g>
</g>
</svg>
