<?xml version="1.0" encoding="utf-8"?>
<!-- Generator: Adobe Illustrator 17.1.0, SVG Export Plug-In . SVG Version: 6.00 Build 0)  -->
<svg version="1.2" baseProfile="tiny" xmlns="http://www.w3.org/2000/svg" xmlns:xlink="http://www.w3.org/1999/xlink" x="0px"
	 y="0px" width="64px" height="64px" viewBox="0 0 64 64" xml:space="preserve">
<g id="_x36_4px_Boxes">
	<rect width="64" height="64"/>
</g>
<g id="Production_diap">
	<g>
		<path fill="#FFFFFF" d="M51.7886,44.6182c-1.1527-1.2612-3.4918-3.1357-5.8311-4.8964
			c-6.4105,8.8258-14.9074,13.5275-25.2434,15.1176c-0.6435,0.0989-0.5906-0.2388-0.5906-0.2388
			c8.0396-2.7534,17.7511-7.6456,21.8944-15.1157C44.4537,35.0935,46,29.3046,46,23.4004C46,13.1826,39.7319,6,32,6
			c-7.7319,0-14,7.1826-14,17.4004c0,10.3831,4.6942,20.4601,10.9674,22.9889c-0.0299,0.1654-0.2186,0.1935-0.483,0.142
			c-4.1711-0.8113-7.3832-3.8376-9.8911-7.2219c-2.5154,1.8746-5.1385,3.9485-6.382,5.3088C9.4531,47.6357,8,59,8,59h48
			C56,59,54.5469,47.6357,51.7886,44.6182z M21.3112,30.1119c-0.653-3.683-0.5612-6.7575-0.0568-9.7358
			c3.3068-1.9496,6.8986-2.526,10.7454-2.526c3.8329,0,7.4308,0.5718,10.7468,2.526c0.5029,2.9742,0.5956,6.0486-0.0581,9.7357
			c-0.7864,4.437-4.2819,11.0381-10.6887,11.0381C25.5931,41.1499,22.0976,34.5488,21.3112,30.1119z"/>
		<path fill="#FFFFFF" d="M40.3944,29.7245c0.7938-4.4769,0.2223-7.8564,0.2223-7.8564s-2.8441-1.6763-8.6169-1.6763
			s-8.6159,1.6763-8.6159,1.6763s-0.5723,3.3796,0.2214,7.8564c0.5992,3.3806,3.3024,9.0837,8.3946,9.0837
			C37.093,38.8082,39.7953,33.1051,40.3944,29.7245z"/>
	</g>
</g>
</svg>
