<?xml version="1.0" encoding="utf-8"?>
<!-- Generator: Adobe Illustrator 17.1.0, SVG Export Plug-In . SVG Version: 6.00 Build 0)  -->
<svg version="1.2" baseProfile="tiny" xmlns="http://www.w3.org/2000/svg" xmlns:xlink="http://www.w3.org/1999/xlink" x="0px"
	 y="0px" width="64px" height="64px" viewBox="0 0 64 64" xml:space="preserve">
<g id="_x36_4px_Boxes">
	<rect width="64" height="64"/>
</g>
<g id="Production">
	<g>
		<path fill="#FFFFFF" d="M58.6221,31.7988c-5.0588-0.6762-10.1852-0.6761-15.2441,0C42.6159,31.9023,42,32.5433,42,33.2083
			c0,8.8612,0,17.7222,0,26.5834c-0.0001,0.665,0.6158,1.306,1.3779,1.4095c5.0589,0.6762,10.1853,0.6761,15.2441,0
			c0.7622-0.1033,1.378-0.7446,1.3779-1.4095c0-8.8612,0-17.7222,0-26.5834C59.9999,32.543,59.3842,31.9024,58.6221,31.7988z
			 M51,60.3191c-1.0047,0-1.8192-0.8145-1.8192-1.8191c0-1.0047,0.8145-1.8192,1.8192-1.8192s1.8192,0.8145,1.8192,1.8192
			C52.8192,59.5046,52.0047,60.3191,51,60.3191z M57,55H45V35h12V55z"/>
		<path fill="#FFFFFF" d="M36.0117,39.9902c0.834,6.3721-8.0596,11.8838-8.4385,12.1152c-0.1758,0.1074-0.375,0.1611-0.5732,0.1611
			s-0.3975-0.0537-0.5732-0.1611c-0.3789-0.2314-9.2725-5.7432-8.4385-12.1152c0.0607-0.4629,0.1266-0.9236,0.1947-1.3761
			c-2.6989,0.8002-9.5035,3.0033-11.7958,5.4962C3.5137,47.2344,2,59,2,59h25h12V39.6417c-1.265-0.4417-2.3993-0.7952-3.183-1.0275
			C35.8851,39.0667,35.951,39.5273,36.0117,39.9902z"/>
		<path fill="#FFFFFF" d="M39.0159,21.9767c-0.2396-0.0968-0.4733-0.1002-0.6844-0.0665c0.4835-3.3569,1.1956-9.8115-0.0615-12.1355
			c-1.5283-2.8256-3.348-4.2173-6.8501-3.2908c-2.297-1.2793-3.8609-2.0801-7.8854-0.9281
			c-2.7963,0.8003-5.8569,2.1073-7.4696,4.288c-1.7083,2.3104-0.9725,8.7151-0.4395,12.0599c-0.2-0.0259-0.4181-0.0172-0.6414,0.073
			C14.4579,22.1899,14.2,22.8784,14.2,24.151c0,1.2728,0.3766,3.3143,2.259,3.8182c0.4278,3.1877,2.1379,6.0856,4.3621,8.283
			c-0.205,1.0925-0.4637,2.5928-0.6512,4.0232c-0.4979,3.7977,4.3223,7.8955,6.8301,9.583
			c3.3478-2.2528,7.3307-5.9913,6.7496-10.1361c-3.6262,2.908-7.7,2.1835-9.8272-1.2887c2.2642,0.7002,5.9133,0.5068,7.4043-0.5836
			c1.3443-0.9831,2.5772-2.2266,3.6018-3.6367c-1.1721,0.4598-2.5685,0.7234-4.0249,0.6771
			C30.7688,35.2479,30.3808,35.5,29.9232,35.5h-3.762C25.666,35.5,25,35,25,34s0.666-1.5,1.1613-1.5h3.762
			c0.4619,0,0.8553,0.2559,0.9868,0.6185l0.0001,0.0258c1.1152,0.0298,4.9619-0.0448,6.1083-2.9897
			c0.2715-0.6974,0.4221-1.4374,0.5224-2.1854C39.4233,27.4653,39.8,25.4238,39.8,24.151
			C39.8,22.8784,39.5419,22.1899,39.0159,21.9767z M36.265,23.3514C36.01,24.3281,35,24.1582,35,24.1582
			c-0.0024,0.0011,0-5.509,0-5.509l-5.2749-3.8501C25.077,17.332,21.043,17.9043,19,18.05c0,0,0.0026,6.1097,0,6.1082
			c0,0-1.0099,0.1699-1.265-0.8068c-0.2253-0.8632-0.6535-3.0402-0.8412-6.2303c-0.065-0.9133-0.1002-1.5984-0.0938-3.1538
			c0.0096-2.3634,0.4797-4.7164,7.2266-6.6492c1.1475-0.3287,2.0848-0.488,2.8677-0.488c1.4855,0,2.415,0.5846,4.34,1.6565
			c0.771-0.2039,1.5172-0.4343,2.301-0.4343c2.0178,0,3.3405,2.2168,3.5625,4.2244C37.4457,15.4231,36.8139,21.249,36.265,23.3514z"
			/>
	</g>
</g>
</svg>
