<?xml version="1.0" encoding="utf-8"?>
<!-- Generator: Adobe Illustrator 17.1.0, SVG Export Plug-In . SVG Version: 6.00 Build 0)  -->
<svg version="1.2" baseProfile="tiny" xmlns="http://www.w3.org/2000/svg" xmlns:xlink="http://www.w3.org/1999/xlink" x="0px"
	 y="0px" width="64px" height="64px" viewBox="0 0 64 64" xml:space="preserve">
<g id="_x36_4px_Boxes">
	<rect width="64" height="64"/>
</g>
<g id="Production">
	<path d="M61.837,37H36.163C35.5207,37,35,37.4463,35,37.9968v18.0063C35,56.5537,35.5207,57,36.163,57h8.3426l-0.5988,2.4221
		C43.7425,59.7746,43.3889,60,43,60h-1.011C41.4428,60,41,60.4428,41,60.989V62h16v-1.011C57,60.4428,56.5572,60,56.011,60H55
		c-0.3889,0-0.7425-0.2254-0.9067-0.5779L53.4944,57h8.3426C62.4793,57,63,56.5537,63,56.0032V37.9968
		C63,37.4463,62.4793,37,61.837,37z M60,53H38V40h22V53z"/>
	<g>
		<path fill="#FFFFFF" d="M61.837,37H36.163C35.5207,37,35,37.4463,35,37.9968v18.0063C35,56.5537,35.5207,57,36.163,57h8.3426
			l-0.5988,2.4221C43.7425,59.7746,43.3889,60,43,60h-1.011C41.4428,60,41,60.4428,41,60.989V62h16v-1.011
			C57,60.4428,56.5572,60,56.011,60H55c-0.3889,0-0.7425-0.2254-0.9067-0.5779L53.4944,57h8.3426C62.4793,57,63,56.5537,63,56.0032
			V37.9968C63,37.4463,62.4793,37,61.837,37z M60,53H38V40h22V53z"/>
		<path fill="#FFFFFF" d="M29.9232,35.5h-3.762C25.666,35.5,25,35,25,34s0.666-1.5,1.1613-1.5h3.762
			c0.4619,0,0.8553,0.2559,0.9868,0.6185l0.0001,0.0258c1.1152,0.0298,4.9619-0.0448,6.1083-2.9897
			c0.2715-0.6974,0.4221-1.4374,0.5224-2.1854C39.4233,27.4653,39.8,25.4238,39.8,24.151c0-1.2726-0.2581-1.9611-0.7841-2.1743
			c-0.2396-0.0968-0.4733-0.1002-0.6844-0.0665c0.4835-3.3569,1.1956-9.8115-0.0615-12.1355
			c-1.5283-2.8256-3.348-4.2173-6.8501-3.2908c-2.297-1.2793-3.8609-2.0801-7.8854-0.9281
			c-2.7963,0.8003-5.8569,2.1073-7.4696,4.288c-1.7083,2.3104-0.9725,8.7151-0.4395,12.0599c-0.2-0.0259-0.4181-0.0172-0.6414,0.073
			C14.4579,22.1899,14.2,22.8784,14.2,24.151c0,1.2728,0.3766,3.3143,2.259,3.8182c0.4278,3.1877,2.1379,6.0856,4.3621,8.283
			c-0.205,1.0925-0.4637,2.5928-0.6512,4.0232c-0.4979,3.7977,4.3223,7.8955,6.8301,9.583c1.7403-1.1711,3.6469-2.7459,5-4.5683
			v-4.465c-3.1199,1.4961-6.2877,0.5301-8.0776-2.3915c2.2642,0.7002,5.9133,0.5068,7.4043-0.5836
			c1.3443-0.9831,2.5772-2.2266,3.6018-3.6367c-1.1721,0.4598-2.5685,0.7234-4.0249,0.6771
			C30.7688,35.2479,30.3808,35.5,29.9232,35.5z M19,18.05c0,0,0.0026,6.1097,0,6.1082c0,0-1.0099,0.1699-1.265-0.8068
			c-0.2253-0.8632-0.6535-3.0402-0.8412-6.2303c-0.065-0.9133-0.1002-1.5984-0.0938-3.1538
			c0.0096-2.3634,0.4797-4.7164,7.2266-6.6492c1.1475-0.3287,2.0848-0.488,2.8677-0.488c1.4855,0,2.415,0.5846,4.34,1.6565
			c0.771-0.2039,1.5172-0.4343,2.301-0.4343c2.0178,0,3.3405,2.2168,3.5625,4.2244c0.3478,3.1465-0.284,8.9724-0.8329,11.0748
			C36.01,24.3281,35,24.1582,35,24.1582c-0.0024,0.0011,0-5.509,0-5.509l-5.2749-3.8501C25.077,17.332,21.043,17.9043,19,18.05z"/>
		<path fill="#FFFFFF" d="M27,52.2666c-0.1982,0-0.3975-0.0537-0.5732-0.1611c-0.3789-0.2314-9.2725-5.7432-8.4385-12.1152
			c0.0607-0.4629,0.1266-0.9236,0.1947-1.3761c-2.6989,0.8002-9.5035,3.0033-11.7958,5.4962C3.5137,47.2344,2,59,2,59h25h5V48.5958
			c-2.0922,2.063-4.2445,3.3983-4.4268,3.5096C27.3975,52.2129,27.1982,52.2666,27,52.2666z"/>
	</g>
</g>
</svg>
