<?xml version="1.0" encoding="utf-8"?>
<!-- Generator: Adobe Illustrator 17.1.0, SVG Export Plug-In . SVG Version: 6.00 Build 0)  -->
<svg version="1.2" baseProfile="tiny" xmlns="http://www.w3.org/2000/svg" xmlns:xlink="http://www.w3.org/1999/xlink" x="0px"
	 y="0px" width="64px" height="64px" viewBox="0 0 64 64" xml:space="preserve">
<g id="_x36_4px_Boxes">
	<rect width="64" height="64"/>
</g>
<g id="Production">
	<g>
		<path fill="#FFFFFF" d="M16.459,27.9692c0.4279,3.1877,2.1379,6.0856,4.3622,8.283c-0.205,1.0925-0.4637,2.5928-0.6512,4.0232
			c-0.4978,3.7977,4.3223,7.8955,6.8301,9.583c1.501-1.01,3.1265-2.3204,4.4143-3.8303c-0.1646-0.8037-0.2512-1.6354-0.2512-2.4871
			c0-0.8425,0.0862-1.6652,0.2473-2.4609c-2.931,1.1132-5.733,0.0389-7.2878-2.3445l-0.0104-0.001
			c-0.0409-0.062-0.069-0.1147-0.1053-0.1737c-0.0273-0.0444-0.0571-0.0829-0.0845-0.1273
			c2.2643,0.7002,5.9133,0.5068,7.4043-0.5836C34.4221,35.5863,37,32,37.5408,27.9692C39.4233,27.4653,39.8,25.4238,39.8,24.151
			c0-1.2726-0.2581-1.9611-0.7842-2.1743c-0.2395-0.0968-0.4731-0.1002-0.6843-0.0665c0.4834-3.3569,1.1956-9.8115-0.0615-12.1355
			c-1.5283-2.8256-3.348-4.2173-6.8501-3.2908c-2.2971-1.2793-3.861-2.0801-7.8855-0.9281
			c-2.7961,0.8003-5.8568,2.1073-7.4695,4.288c-1.7084,2.3104-0.9727,8.7151-0.4396,12.0599
			c-0.2001-0.0259-0.4181-0.0172-0.6415,0.073C14.458,22.1899,14.2,22.8784,14.2,24.151
			C14.2,25.4238,14.5767,27.4653,16.459,27.9692z M16.8,13.9673c0.0096-2.3634,0.4797-4.7164,7.2266-6.6492
			c1.1476-0.3287,2.085-0.488,2.8678-0.488c1.4855,0,2.415,0.5846,4.34,1.6565c0.771-0.2039,1.5172-0.4343,2.301-0.4343
			c2.0178,0,3.3406,2.2168,3.5625,4.2244c0.3479,3.1465-0.2839,8.9724-0.8329,11.0748C36.01,24.3281,35,24.1582,35,24.1582
			c-0.0024,0.0011,0-5.509,0-5.509l-5.2749-3.8501C25.077,17.332,21.043,17.9043,19,18.05c0,0,0.0026,6.1097,0,6.1082
			c0,0-1.01,0.1699-1.2649-0.8068c-0.2253-0.8632-0.6536-3.0402-0.8413-6.2303C16.8289,16.2078,16.7937,15.5227,16.8,13.9673z"/>
		<path fill="#FFFFFF" d="M43.5449,55.9248c-5.093,0-9.4747-3.0935-11.3738-7.4988c-2.1443,2.1599-4.4106,3.5651-4.5979,3.6794
			c-0.1758,0.1074-0.375,0.1611-0.5732,0.1611s-0.3975-0.0537-0.5732-0.1611c-0.3789-0.2314-9.2725-5.7432-8.4385-12.1152
			c0.0608-0.4629,0.1266-0.9236,0.1947-1.3761c-2.6989,0.8002-9.5035,3.0033-11.7958,5.4962C3.5137,47.2344,2,59,2,59h25h23.905
			l-3.6814-3.6377C46.0342,55.7324,44.791,55.9248,43.5449,55.9248z"/>
		<path fill="#FFFFFF" d="M58.3235,54.4074l-6.5114-6.4349c0.7106-1.3208,1.1158-2.8293,1.1158-4.4312
			c0-5.1729-4.2094-9.3812-9.3833-9.3812c-5.1731,0-9.3818,4.2083-9.3818,9.3812c0,5.1743,4.2087,9.3839,9.3818,9.3839
			c1.5813,0,3.0699-0.397,4.3784-1.0906l6.5239,6.4489c0.4326,0.4325,0.9858,0.6729,1.5526,0.7213
			c0.7096,0.0605,1.4401-0.1799,1.9814-0.7213l0.3424-0.3424c0.5328-0.5327,0.7742-1.2455,0.7251-1.9419
			C59.0078,55.4194,58.7659,54.851,58.3235,54.4074z M43.5447,49.227c-3.1377,0-5.6836-2.5452-5.6836-5.6857
			c0-3.1377,2.5459-5.6829,5.6836-5.6829c3.1392,0,5.6851,2.5452,5.6851,5.6829C49.2297,46.6818,46.6838,49.227,43.5447,49.227z"/>
	</g>
</g>
</svg>
