<?xml version="1.0" encoding="utf-8"?>
<!-- Generator: Adobe Illustrator 18.1.1, SVG Export Plug-In . SVG Version: 6.00 Build 0)  -->
<svg version="1.2" baseProfile="tiny" xmlns="http://www.w3.org/2000/svg" xmlns:xlink="http://www.w3.org/1999/xlink" x="0px"
	 y="0px" width="64px" height="64px" viewBox="0 0 64 64" xml:space="preserve">
<g id="_x36_4px_Box">
	<rect width="64" height="64"/>
</g>
<g id="Icon">
	<g>
		<path fill="#FFFFFF" d="M56,58.9901c0,0-0.0011-0.0065-0.0012-0.0068l-0.8074-11.7067c-0.105-1.5228-1.3327-2.717-2.8574-2.7885
			c-2.7991-0.1314-6.2454-0.6037-9.1741-1.4166c-1.6492,3.6761-5.035,9.5952-11.16,14.9285
			c-6.1249-5.4167-9.5081-11.2461-11.16-14.9285c-2.9247,0.8116-6.3713,1.2852-9.1744,1.4167
			c-1.5245,0.0715-2.752,1.2658-2.857,2.7885L8.0012,58.9833C8.0011,58.9836,8,58.9901,8,58.9901h0.0007L8,59l0.0233-0.0099h47.9534
			L56,59l-0.0007-0.0099H56z"/>
		<path fill="#FFFFFF" d="M16.8198,40.7977c1.7396-0.616,4.2083-1.0776,7.1108-1.3762c0.1226-0.364,0.2512-1.2043,0.3669-2.2488
			c-2.5359,0.2379-4.7763,0.5944-6.5778,1.0596c-0.9695-4.3506-1.5373-8.7529-1.5373-12.0234
			c0-9.6328,5.3839-17.3828,13.0916-18.8467c4.1642-0.7894,6.0449,1.2434,7.046,2.1865c0.9196-0.2006,1.4136-0.3594,2.3548-0.3594
			c0.7827,0,1.9335,0.1318,2.9747,0.7607c3.4011,2.0557,6.1675,9.3486,6.1675,16.2588c0,3.2705-0.5676,7.6738-1.5373,12.0234
			c-1.8015-0.4652-4.0417-0.8217-6.5774-1.0596c0.1155,1.0426,0.2441,1.8824,0.3673,2.2488
			c2.9023,0.2986,5.3707,0.7603,7.1105,1.3762c0.3719,0.1318,0.7648-0.1191,0.8679-0.5381C49.2957,35.1727,50,29.9344,50,26.2089
			c0-7.4844-2.9487-15.5591-7.2281-18.145c-2.7283-1.6486-5.7955-0.9082-5.7955-0.9082s-2.9491-2.9351-8.1068-1.9556
			C20.4548,6.7987,14,14.955,14,26.2089c0,3.7256,0.7043,8.9639,1.9518,14.0508C16.0546,40.6786,16.4478,40.9296,16.8198,40.7977z"
			/>
		<path fill="#FFFFFF" d="M23.1198,42.7617c1.3377,2.8318,4.0581,7.5803,8.8895,12.251c3.1614-3.0272,5.4256-6.1513,6.9921-8.7545
			c0.0532-0.0894,0.1052-0.1776,0.1575-0.2663c0.7292-1.2328,1.2877-2.3206,1.7166-3.2321
			c-1.1596-0.4299-2.7526-1.1706-3.2046-2.3234c-0.1-0.2546-0.1895-0.6229-0.2715-1.0459
			c-1.6435,1.1204-3.6276,1.4824-5.1955,1.1971c-2.2166-0.4034-2.9756-2.0549-3.2561-3.2426
			c0.001,0.0005,0.002,0.0002,0.0029,0.0007c1.7443,0.9146,4.9101,0.7581,6.6479-0.3518c2.4406-1.5586,4.6598-6.002,5.173-9.1846
			c0.2564-1.5869,0.2568-3.0146,0.1931-4.0479c-2.1671-1.3889-4.0832-3.2672-5.4399-6.0227
			c0.5328-0.9584,1.0043-1.8125,1.4127-2.5613c0.3547-0.6504-0.0205-0.6825-0.0205-0.6825
			c-3.2241,3.4823-9.4097,7.0905-13.8534,8.9003c-0.0865,1.0703-0.1259,2.6816,0.1584,4.4141
			c0.42,2.5625,1.6376,5.4644,3.8314,7.8706c-0.1412,1.7384-0.3759,3.8726-0.7243,4.7573
			C25.8756,41.5917,24.2797,42.3321,23.1198,42.7617z M37,42.5c0.8284,0,1.5,0.6716,1.5,1.5s-0.6716,1.5-1.5,1.5
			s-1.5-0.6716-1.5-1.5S36.1716,42.5,37,42.5z M33.9,44.6c0.8284,0,1.5,0.6716,1.5,1.5s-0.6716,1.5-1.5,1.5s-1.5-0.6716-1.5-1.5
			S33.0716,44.6,33.9,44.6z M30.1,44.6c0.8284,0,1.5,0.6716,1.5,1.5s-0.6716,1.5-1.5,1.5s-1.5-0.6716-1.5-1.5
			S29.2715,44.6,30.1,44.6z M28.5,44c0,0.8284-0.6716,1.5-1.5,1.5s-1.5-0.6716-1.5-1.5s0.6716-1.5,1.5-1.5S28.5,43.1716,28.5,44z"/>
	</g>
</g>
</svg>
