<?xml version="1.0" encoding="utf-8"?>
<!-- Generator: Adobe Illustrator 19.1.0, SVG Export Plug-In . SVG Version: 6.00 Build 0)  -->
<svg version="1.2" baseProfile="tiny" xmlns="http://www.w3.org/2000/svg" xmlns:xlink="http://www.w3.org/1999/xlink" x="0px"
	 y="0px" width="64px" height="64px" viewBox="0 0 64 64" xml:space="preserve">
<g id="Box">
	<rect width="64" height="64"/>
</g>
<g id="Icon">
	<g>
		<path fill="#FFFFFF" d="M52.6128,44.1104c-2.2922-2.4929-9.0969-4.696-11.7958-5.4961c0.1425,0.9464,0.3746,2.2741-0.0416,3.1455
			c-1.1709,2.4697-4.6123,4.0654-8.7676,4.0654c-4.3135,0-7.8926-1.7549-8.9062-4.3672c-0.1152-0.2979-0.2104-0.7203-0.1133-1.4639
			c0.0603-0.4603,0.1272-0.9174,0.1952-1.3607c0.0007-0.007-0.0016-0.0121-0.0005-0.0193
			c-2.6989,0.8002-9.5035,3.0033-11.7958,5.4962C8.5137,47.2344,7,59,7,59h50C57,59,55.4863,47.2344,52.6128,44.1104z"/>
		<path fill="#FFFFFF" d="M26.1918,25.2002h2.7198c0.1676,0,0.3184-0.1022,0.3804-0.2578l0.8545-2.1426h-4.5693l0.2808,2.1079
			C25.8801,25.0751,26.0229,25.2002,26.1918,25.2002z"/>
		<path fill="#FFFFFF" d="M21.459,27.9692c0.4279,3.1877,2.1379,6.0856,4.3622,8.283c-0.205,1.0925-0.4637,2.5928-0.6512,4.0232
			c-0.0168,0.1285-0.0129,0.2581-0.0178,0.3871c0.656,1.691,3.476,2.9625,6.8556,2.9625c3.2745,0,6.016-1.1953,6.7806-2.8077
			c0.0168-0.3618,0.0129-0.7261-0.0387-1.095c-3.6962,2.9641-7.6595,2.0292-9.6271-0.9867l-0.0104-0.001
			c-0.0409-0.062-0.069-0.1147-0.1053-0.1737c-0.0273-0.0444-0.0571-0.0829-0.0845-0.1273
			c2.2643,0.7002,5.9133,0.5068,7.4043-0.5836C39.4221,35.5863,42,32,42.5408,27.9692C44.4233,27.4653,44.8,25.4238,44.8,24.151
			c0-1.2726-0.2581-1.9611-0.7842-2.1743c-0.2395-0.0968-0.4731-0.1002-0.6843-0.0665c0.4834-3.3569,1.1956-9.8115-0.0615-12.1355
			c-1.5283-2.8256-3.348-4.2173-6.8501-3.2908c-2.2971-1.2793-3.861-2.0801-7.8855-0.9281
			c-2.7961,0.8003-5.8568,2.1073-7.4695,4.288c-1.7084,2.3104-0.9727,8.7151-0.4396,12.0599
			c-0.2001-0.0259-0.4181-0.0172-0.6415,0.073C19.458,22.1899,19.2,22.8784,19.2,24.151
			C19.2,25.4238,19.5767,27.4653,21.459,27.9692z M21.8,13.9673c0.0096-2.3634,0.4797-4.7164,7.2266-6.6492
			c1.1476-0.3287,2.085-0.488,2.8678-0.488c1.4855,0,2.415,0.5846,4.34,1.6565c0.771-0.2039,1.5172-0.4343,2.301-0.4343
			c2.0178,0,3.3406,2.2168,3.5625,4.2244c0.2197,1.988,0.0481,5.0438-0.2462,7.556c-0.4685-0.131-1.1387-0.1443-1.8522,0.194
			C39.9998,19.2378,40,18.6492,40,18.6492l-5.2749-3.8501C30.077,17.332,26.043,17.9043,24,18.05c0,0,0.0002,0.8526,0.0005,1.9443
			c-0.7205-0.3532-1.4-0.3462-1.8759-0.2161c-0.0911-0.7845-0.1727-1.6696-0.2308-2.6572
			C21.8289,16.2078,21.7937,15.5227,21.8,13.9673z M23.843,21H32h8.1799c0.7769-0.6671,1.9688-1.1512,2.4387-0.2414l-2.4863,2.8397
			l-0.2222,1.6678C39.7778,26.2587,38.9314,27,37.9301,27h-2.8431c-0.9048,0-1.7179-0.5521-2.0518-1.3929l-0.5115-1.2882
			c-0.1882-0.474-0.8591-0.474-1.0474,0l-0.5115,1.2883C30.6309,26.4479,29.8179,27,28.9131,27h-2.8431
			c-1.0013,0-1.8478-0.7413-1.9801-1.7338l-0.2225-1.6711l-2.5221-2.8875C21.8262,19.7769,23.0583,20.3058,23.843,21z"/>
		<path fill="#FFFFFF" d="M35.0869,25.2002h2.7213c0.1688,0,0.3115-0.125,0.3339-0.2923l0.2808-2.1081h-4.573l0.8589,2.1445
			C34.7708,25.0989,34.9204,25.2002,35.0869,25.2002z"/>
	</g>
</g>
</svg>
