<?xml version="1.0" encoding="utf-8"?>
<!-- Generator: Adobe Illustrator 21.0.2, SVG Export Plug-In . SVG Version: 6.00 Build 0)  -->
<svg version="1.2" baseProfile="tiny" xmlns="http://www.w3.org/2000/svg" xmlns:xlink="http://www.w3.org/1999/xlink" x="0px"
	 y="0px" width="64px" height="64px" viewBox="0 0 64 64" xml:space="preserve">
<g id="Box">
	<rect width="64" height="64"/>
</g>
<g id="Icon">
	<g>
		<path fill="#FFFFFF" d="M32,37.7c1.5,0,2.5-0.7,2.5-1.2c0-0.5-1-1.2-2.5-1.2s-2.5,0.7-2.5,1.2C29.5,36.9,30.5,37.7,32,37.7z
			 M20.5,33.2c1.1,3.3,3.1,5.5,5.6,6.7c-0.4,1.8-0.8,3.6-0.7,4.7c0.2,2.8,3,4.9,6.7,4.9c3.5,0,6.7-1.9,6.7-5.5
			c0-0.3-0.1-1.2-0.1-1.2c-1,0.6-2.5,1-3.9,1c-2.1,0.1-4.2-0.7-4.9-2.8c0.7,0.1,1.5,0.2,2.2,0.2c5.3,0,9.7-2.4,11.5-8
			c2,0.5,3.9-0.8,4.6-2.7c1.1-2.8-1.2-5-4.1-3.7c0.6-4.6-0.6-10-4.5-13c-0.9-3.2-3.4-5.1-6.7-5.1c-2.5,0-5.4,1.5-7,4.1
			c-5.1,2.7-6.6,8.8-6,14c-2.9-1.3-5.2,0.8-4.1,3.7C16.6,32.4,18.4,33.8,20.5,33.2z M32.8,10.7c2.5,0,4.3,1.3,4.9,3.6
			c0.4,1.3,0.1,2.8,0.1,2.8s-1.1-0.6-2.3-0.9c-2.6-0.7-4.6,0.8-4.3,2.5c0.3,1.8,3,2.3,4.9,0.7c0,0,0.8,0.5,0,1.7
			c-2.3,3.5-9.6,3-9.5-4.1C26.7,12.9,30.5,10.8,32.8,10.7z M26.7,32.2c0.9-1.1,2.3-0.9,3.3-0.3c0.9,0.6,0.9,1,2.1,1s1.2-0.4,2.1-1
			c1-0.7,2.3-0.8,3.3,0.3c0.8,0.9,0.3,2.7-0.9,3.7c0,0.2,0.1,0.4,0.1,0.6c0,1.8-2,3.2-4.5,3.2s-4.5-1.4-4.5-3.2c0-0.2,0-0.4,0.1-0.6
			C26.3,35,25.9,33.2,26.7,32.2z M40.4,42c0.2,1.6,0.2,2,0.2,2.2c0,4.1-3.7,7.3-8.7,7.3s-8.7-3.1-8.7-7.3c0-0.2,0-0.7,0.2-2.2
			c-5.8,2.3-8.6,7.2-8.6,13h34C49.1,49.3,46.3,44.4,40.4,42z"/>
	</g>
</g>
</svg>
