<?xml version="1.0" encoding="utf-8"?>
<!-- Generator: Adobe Illustrator 21.0.2, SVG Export Plug-In . SVG Version: 6.00 Build 0)  -->
<svg version="1.2" baseProfile="tiny" xmlns="http://www.w3.org/2000/svg" xmlns:xlink="http://www.w3.org/1999/xlink" x="0px"
	 y="0px" width="64px" height="64px" viewBox="0 0 64 64" xml:space="preserve">
<g id="Box">
	<rect width="64" height="64"/>
</g>
<g id="Icon">
	<g>
		<path fill="#FFFFFF" d="M40.3,41.8c0.2,1.1,0.4,2.5-0.4,4.2c-1.2,2.5-4.2,4.2-7.9,4.2c-3.8,0-6.8-1.8-8-4.5
			c-0.7-1.6-0.5-2.8-0.3-3.9C17.1,44,13.9,49.1,14,55h36C50.1,49.1,46.9,44,40.3,41.8z M54.4,15.2c-3.3-4.5-8.3-4.1-10.8-3.2
			c-1.3-1.8-3.1-3.2-5.3-4c-2.2-0.8-4.4-0.8-6.3,0c-1.9-0.7-4.1-0.7-6.3,0c-2.2,0.8-4,2.2-5.3,4c-2.5-0.9-7.5-1.3-10.8,3.2
			c-3.1,4.2-2.5,8.9-0.2,13.7c7.5-1.9,5.9-1.5,7.9-2c0-1.3-0.4-2.9,1.3-4.5c0.4,2,0.9,3.1,1.4,4.4c-0.9,0.6-1.3,1.9-1,3.3
			c0.4,1.7,2,3.1,3.7,2.6c0.6,3,2,5.2,3.8,6.6c-0.2,0.7-0.7,3-0.8,3.7c-0.1,3.5,3.1,5.1,6.4,5.1c3.4,0,6-1.8,6.4-4.2
			c0-0.3,0.1-0.7-0.1-1.5c-2.7,1.2-6.4,1.6-8.5-1.5c0.7,0.2,1.4,0.2,2.1,0.2c4.5,0,8.2-3,9.4-8.5c1.6,0.5,3.2-0.9,3.7-2.6
			c0.3-1.4-0.1-2.7-1-3.3c0.5-1.3,1-2.4,1.4-4.4c1.7,1.6,1.4,3.4,1.3,4.5l8,2C56.9,24.2,57.5,19.4,54.4,15.2z M53.6,26.6l-4.8-1.2
			c0.1-1.8-1.5-5.3-5.1-5.9c0,0.8-0.1,1.6-0.3,2.3l0,0c-0.4,2-1.1,3.8-1.6,5c-0.1,0.2-0.2,0.2-0.2,0c-0.2-0.4-0.6-1.7-1-2.9
			c-6.9-0.5-8.7-5.6-8.7-5.6l0,0v0c0,0-1.7,5.1-8.7,5.6c-0.4,1.2-0.8,2.5-1,2.9c-0.1,0.1-0.1,0.2-0.2,0c-0.7-1.3-1.3-3.2-1.6-5l0,0
			c-0.1-0.7-0.2-1.5-0.3-2.3c-3.5,0.6-5.2,4.1-5.1,5.9l-4.8,1.2c0,0-2.6-5.5,0.8-10.1C14.6,11.8,20,14,20,14s-0.4,1.7-0.2,3.2
			c0.1,0.5,0.4,0.5,0.5,0.5c0.1-0.8,0.2-1.6,0.5-2.4c1.9-5,7.7-7.1,11.2-5.1v0l0,0c3.4-2,9.3,0.1,11.2,5.1c0.3,0.8,0.5,1.6,0.5,2.4
			c0.1,0,0.5,0,0.5-0.5C44.4,15.7,44,14,44,14s5.4-2.3,8.8,2.4C56.2,21.1,53.6,26.6,53.6,26.6z"/>
	</g>
</g>
</svg>
