<?xml version="1.0" encoding="utf-8"?>
<!-- Generator: Adobe Illustrator 21.0.2, SVG Export Plug-In . SVG Version: 6.00 Build 0)  -->
<svg version="1.2" baseProfile="tiny" xmlns="http://www.w3.org/2000/svg" xmlns:xlink="http://www.w3.org/1999/xlink" x="0px"
	 y="0px" width="64px" height="64px" viewBox="0 0 64 64" xml:space="preserve">
<g id="Box">
	<rect width="64" height="64"/>
</g>
<g id="Icon">
	<g>
		<path fill="#FFFFFF" d="M32,9.5c2.2,0,4,0.3,5.5,0.9c0.3-0.5,0.4-1,0.4-1.6c0-2.3-2.7-4.2-5.9-4.2s-5.9,1.9-5.9,4.2
			c0,0.6,0.2,1.1,0.4,1.6C28,9.8,29.8,9.5,32,9.5z M32,18.6c-3,2.8-5.7,4.2-7.8,4.8l1.1,2.6h13.4l1.1-2.6C37.8,22.8,35,21.5,32,18.6
			z M32,15.4c4,4.4,7.7,6,10.4,6.2c0.4-1.6,0.1-4-1.2-6c-1.2-1.9-3.8-4.2-9.2-4.2s-8,2.3-9.2,4.2c-1.3,2-1.6,4.5-1.2,6
			C24.3,21.4,28.1,19.9,32,15.4z M27.3,29.9c1.3,0,2.1-0.8,2.3-2.4H25C25.2,29.1,26,29.9,27.3,29.9z M52.5,45
			c-1.8-1.8-5.1-3.4-8-4.6C42.1,46.3,37,50.9,32,53.1c-5.1-2.2-10.2-6.9-12.6-12.7c-2.9,1.2-6.1,2.8-7.9,4.7C7,50,7,59,7,59h50
			C57,59,57.2,49.8,52.5,45z M22.4,30.9c0,3.6,1.1,6.6,3.1,7.4c-1,0.3-2,0.5-4.2,1.3c2.8,6.9,9,10.4,10.7,11.3
			c1.6-0.8,7.8-4.3,10.7-11.2c-0.4-0.2-0.9-0.3-1.2-0.4c-0.7,0.8-1.6,1.3-2.6,1.6c-1,1.4-2.9,3-6.2,2.2c-1.8-0.5-2.8-1.5-3.5-2.4
			c0,0,0,0,0,0C30,40.9,30.9,41,32,41c2.4,0,3.9-0.4,5.3-2.5c2.7-0.1,4.3-3.4,4.3-7.7c1.5,1.3,2.2-1.7,2.3-4.3
			c0-1.3-0.4-2.5-0.9-2.7c-0.5-0.2-1,0-1.2,0.2l-1.2,2.9c-0.1,3.3-2,4.5-3.8,4.5c-2.2,0-3.5-1.4-3.8-3.9h-1.9
			c-0.2,2.4-1.6,3.9-3.8,3.9c-1.8,0-3.7-1.2-3.8-4.5l-1.1-2.8v0c0,0-0.7-0.6-1.4-0.3c-0.5,0.2-0.9,1.4-0.9,2.7
			C20.2,29.2,20.8,32.2,22.4,30.9z M36.7,29.9c1.3,0,2.1-0.9,2.3-2.4h-4.5C34.7,29.1,35.4,29.9,36.7,29.9z"/>
	</g>
</g>
</svg>
