<?xml version="1.0" encoding="utf-8"?>
<!-- Generator: Adobe Illustrator 22.1.0, SVG Export Plug-In . SVG Version: 6.00 Build 0)  -->
<!DOCTYPE svg PUBLIC "-//W3C//DTD SVG 1.1//EN" "http://www.w3.org/Graphics/SVG/1.1/DTD/svg11.dtd">
<svg version="1.1" xmlns="http://www.w3.org/2000/svg" xmlns:xlink="http://www.w3.org/1999/xlink" x="0px" y="0px" width="64px"
	 height="64px" viewBox="0 0 64 64" style="enable-background:new 0 0 64 64;" xml:space="preserve">
<style type="text/css">
	.st0{fill:none;}
	.st1{fill:#FFFFFF;}
</style>
<g id="Box">
	<rect width="64" height="64"/>
</g>
<g id="Icon">
	<g>
		<path class="st1" d="M24.7,53c-0.6-0.6-0.9-1.4-1.1-2.1c-2.7-2-7.3-6.2-6.7-10.9c0.1-0.5,0.1-0.9,0.2-1.4c-2.7,0.8-9.5,3-11.8,5.5
			C2.5,47.2,1,59,1,59h30c-1-1.4-1.8-2.9-2.3-4.6C27.2,54.6,25.7,54.1,24.7,53z"/>
		<path class="st1" d="M15.5,28c0.4,3.2,2.1,6.1,4.4,8.3c-0.2,1.1-0.5,2.6-0.7,4c-0.4,2.9,2.3,6,4.7,8c0.1-0.3,0.3-0.6,0.5-0.9
			l4.2-5.9c-2.2,0.2-4.2-0.9-5.5-2.8l0,0c0-0.1-0.1-0.1-0.1-0.2c0,0-0.1-0.1-0.1-0.1c2.3,0.7,5.9,0.5,7.4-0.6
			c3.1-2.3,5.7-5.8,6.2-9.9c1.9-0.5,2.3-2.5,2.3-3.8c0-1.3-0.3-2-0.8-2.2c-0.2-0.1-0.5-0.1-0.7-0.1c0.5-3.4,1.2-9.8-0.1-12.1
			c-1.5-2.8-3.3-4.2-6.9-3.3c-2.3-1.3-3.9-2.1-7.9-0.9c-2.8,0.8-5.9,2.1-7.5,4.3c-1.7,2.3-1,8.7-0.4,12.1c-0.2,0-0.4,0-0.6,0.1
			c-0.5,0.2-0.8,0.9-0.8,2.2C13.2,25.4,13.6,27.5,15.5,28z M15.8,14c0-2.4,0.5-4.7,7.2-6.6c1.1-0.3,2.1-0.5,2.9-0.5
			c1.5,0,2.4,0.6,4.3,1.7c0.8-0.2,1.5-0.4,2.3-0.4c2,0,3.3,2.2,3.6,4.2c0.3,3.1-0.3,9-0.8,11.1c-0.3,1-1.3,0.8-1.3,0.8
			c0,0,0-5.5,0-5.5l-5.3-3.9c-4.6,2.5-8.7,3.1-10.7,3.3c0,0,0,6.1,0,6.1c0,0-1,0.2-1.3-0.8c-0.2-0.9-0.7-3-0.8-6.2
			C15.8,16.2,15.8,15.5,15.8,14z"/>
		<path class="st1" d="M62.9,47.2c-0.4-0.4-1-0.5-1.6-0.2L59,48.3C58.6,40.9,52.5,35,45,35c-4.2,0-8,1.9-10.6,4.9
			c0.5,0.2,1,0.6,1.4,1.1l1.3,1.9C39,40.5,41.8,39,45,39c5.3,0,9.6,4.1,10,9.3l-2.3-1.4c-0.5-0.3-1.2-0.2-1.6,0.2
			c-0.4,0.4-0.4,1.1-0.1,1.6l5,7c0.2,0.3,0.6,0.5,1,0.5s0.8-0.2,1-0.5l5-7C63.4,48.2,63.3,47.6,62.9,47.2z"/>
		<path class="st1" d="M54.2,57l-1.3-1.9C51,57.5,48.2,59,45,59c-5.3,0-9.6-4.1-10-9.3l2.3,1.4c0.2,0.1,0.4,0.2,0.6,0.2
			c0.3,0,0.7-0.1,0.9-0.4c0.4-0.4,0.4-1.1,0.1-1.6l-5-7c-0.5-0.7-1.6-0.7-2,0l-5,7c-0.3,0.5-0.3,1.1,0.1,1.6c0.4,0.4,1,0.5,1.6,0.2
			l2.4-1.4C31.4,57.1,37.5,63,45,63c4.2,0,8-1.9,10.6-4.9C55,57.9,54.6,57.5,54.2,57z"/>
	</g>
</g>
</svg>
