<?xml version="1.0" encoding="utf-8"?>
<!-- Generator: Adobe Illustrator 22.1.0, SVG Export Plug-In . SVG Version: 6.00 Build 0)  -->
<!DOCTYPE svg PUBLIC "-//W3C//DTD SVG 1.1//EN" "http://www.w3.org/Graphics/SVG/1.1/DTD/svg11.dtd">
<svg version="1.1" xmlns="http://www.w3.org/2000/svg" xmlns:xlink="http://www.w3.org/1999/xlink" x="0px" y="0px" width="64px"
	 height="64px" viewBox="0 0 64 64" style="enable-background:new 0 0 64 64;" xml:space="preserve">
<style type="text/css">
	.st0{fill:none;}
	.st1{fill:#FFFFFF;}
</style>
<g id="Box">
	<rect width="64" height="64"/>
</g>
<g id="Icon">
	<g>
		<path class="st1" d="M35,40c0.8,6.4-8.1,11.9-8.4,12.1c-0.2,0.1-0.4,0.2-0.6,0.2s-0.4-0.1-0.6-0.2C25,51.9,16.2,46.4,17,40
			c0.1-0.5,0.1-0.9,0.2-1.4c-2.7,0.8-9.5,3-11.8,5.5C2.5,47.2,1,59,1,59h38V40c-1.7-0.6-3.2-1.1-4.2-1.4C34.9,39.1,35,39.5,35,40z"
			/>
		<path class="st1" d="M15.5,28c0.4,3.2,2.1,6.1,4.4,8.3c-0.2,1.1-0.5,2.6-0.7,4c-0.5,3.8,4.3,7.9,6.8,9.6c3.3-2.3,7.3-6,6.7-10.1
			c-3.7,3-7.7,2-9.6-1l0,0c0-0.1-0.1-0.1-0.1-0.2c0,0-0.1-0.1-0.1-0.1c2.3,0.7,5.9,0.5,7.4-0.6c3.1-2.3,5.7-5.8,6.2-9.9
			c1.9-0.5,2.3-2.5,2.3-3.8c0-1.3-0.3-2-0.8-2.2c-0.2-0.1-0.5-0.1-0.7-0.1c0.5-3.4,1.2-9.8-0.1-12.1c-1.5-2.8-3.3-4.2-6.9-3.3
			c-2.3-1.3-3.9-2.1-7.9-0.9c-2.8,0.8-5.9,2.1-7.5,4.3c-1.7,2.3-1,8.7-0.4,12.1c-0.2,0-0.4,0-0.6,0.1c-0.5,0.2-0.8,0.9-0.8,2.2
			C13.2,25.4,13.6,27.5,15.5,28z M15.8,14c0-2.4,0.5-4.7,7.2-6.6c1.1-0.3,2.1-0.5,2.9-0.5c1.5,0,2.4,0.6,4.3,1.7
			c0.8-0.2,1.5-0.4,2.3-0.4c2,0,3.3,2.2,3.6,4.2c0.3,3.1-0.3,9-0.8,11.1c-0.3,1-1.3,0.8-1.3,0.8c0,0,0-5.5,0-5.5l-5.3-3.9
			c-4.6,2.5-8.7,3.1-10.7,3.3c0,0,0,6.1,0,6.1c0,0-1,0.2-1.3-0.8c-0.2-0.9-0.7-3-0.8-6.2C15.8,16.2,15.8,15.5,15.8,14z"/>
		<path class="st1" d="M42,33v30h8v-5h3v5h8V33H42z M48,55h-3v-3h3V55z M48,50h-3v-3h3V50z M48,45h-3v-3h3V45z M48,40h-3v-3h3V40z
			 M53,55h-3v-3h3V55z M53,50h-3v-3h3V50z M53,45h-3v-3h3V45z M53,40h-3v-3h3V40z M58,55h-3v-3h3V55z M58,50h-3v-3h3V50z M58,45h-3
			v-3h3V45z M58,40h-3v-3h3V40z"/>
	</g>
</g>
</svg>
