<?xml version="1.0" encoding="utf-8"?>
<!-- Generator: Adobe Illustrator 18.1.0, SVG Export Plug-In . SVG Version: 6.00 Build 0)  -->
<svg version="1.2" baseProfile="tiny" xmlns="http://www.w3.org/2000/svg" xmlns:xlink="http://www.w3.org/1999/xlink" x="0px"
	 y="0px" width="64px" height="64px" viewBox="0 0 64 64" xml:space="preserve">
<g id="_x36_4px_Box">
	<rect fill="none" width="64" height="64"/>
</g>
<g id="Label">
</g>
<g id="Icon">
	<rect fill="none" width="64" height="64"/>
	<rect width="64" height="64"/>
	<g>
		<rect x="29" y="8" fill="#FFFFFF" width="5" height="14"/>
		<path fill="#FFFFFF" d="M54,15H36v9h-9v-9H9c-2.2092,0-4,1.7908-4,4v29c0,2.2092,1.7908,4,4,4h45c2.2092,0,4-1.7908,4-4V19
			C58,16.7908,56.2092,15,54,15z M22,47H10v-2h12V47z M27,43H10v-2h17V43z M27,39H10v-2h17V39z M35.9025,47
			c0,0,0.5508-4.1491,1.5962-5.2507c0.8293-0.8745,3.6619-1.9301,4.8165-2.3354c0.0833-0.3206,0.1474-0.6429,0.1989-0.9471
			c-0.8382-0.8463-1.5415-1.9654-1.7873-3.1471c-0.2785-0.1606-0.7452-0.4129-0.8116-1.5817
			c-0.0748-1.3185,0.1283-1.7078,0.6135-1.6844c-0.0628-0.3438-0.0454-1.0098-0.0485-1.7167
			c-0.0031-0.7365,0.2616-1.5174,0.5931-2.0246c0.226-0.3456,0.8468-0.9604,2.6044-1.3492c1.5596-0.345,2.4918,0.1121,3.3766,0.5375
			c1.0109-0.2395,1.5292,0.1491,1.8981,0.8116c0.2969,0.5333,0.5763,1.3211,0.5815,2.0563c0.0049,0.6956-0.0002,1.3438-0.0626,1.685
			c0.4852-0.0234,0.6883,0.3658,0.6135,1.6844c-0.0665,1.1688-0.5184,1.4211-0.7969,1.5817
			c-0.2458,1.182-0.9787,2.3015-1.8174,3.1479c0.0541,0.3037,0.1252,0.6268,0.2209,0.9486
			c1.1587,0.4071,3.9822,1.4602,4.8099,2.3331C53.5468,42.8509,54.0976,47,54.0976,47H35.9025z"/>
	</g>
</g>
</svg>
