<?xml version="1.0" encoding="utf-8"?>
<!-- Generator: Adobe Illustrator 18.1.1, SVG Export Plug-In . SVG Version: 6.00 Build 0)  -->
<svg version="1.2" baseProfile="tiny" xmlns="http://www.w3.org/2000/svg" xmlns:xlink="http://www.w3.org/1999/xlink" x="0px"
	 y="0px" width="64px" height="64px" viewBox="0 0 64 64" xml:space="preserve">
<g id="_x36_4px_Box">
	<rect width="64" height="64"/>
</g>
<g id="Icon">
	<path fill="#FFFFFF" d="M51.9611,42.0247c-1.1324-1.4297-2.34-2.9543-3.4578-4.6931c-1.1196,1.7455-2.3275,3.2727-3.4602,4.7048
		c-1.8493,2.3379-3.4463,4.3571-3.8634,6.4298c-0.3496,1.7371,0.0775,3.4456,1.2025,4.8107c1.3682,1.66,3.5989,2.6122,6.1201,2.6122
		c2.5159,0,4.7413-0.9463,6.1057-2.5961c1.1301-1.3665,1.5615-3.0851,1.2145-4.8394
		C55.4131,46.3828,53.8133,44.3632,51.9611,42.0247z M49.4474,53.1542c-0.5273,0.1585-1.0977,0.2438-1.696,0.2438
		c-1.6309,0-3.0698-0.6143-3.9477-1.6855c-0.7133-0.8701-0.9839-1.9589-0.7625-3.0663c0.129-0.6442,0.4521-1.2823,0.8638-1.9566
		c0.074-0.1213,0.1578-0.1129,0.2187-0.0771c-0.0421,0.7888,0.5969,2.7351,1.5516,3.8996c1.015,1.2384,1.9621,1.8119,3.8958,2.4614
		C49.6145,53.0336,49.594,53.1102,49.4474,53.1542z M25,23.5c0-3.5898,2.9102-6.5,6.5-6.5s6.5,2.9102,6.5,6.5S35.0898,30,31.5,30
		S25,27.0898,25,23.5z M59.3433,27.8748c-1.0886,2.075-3.6008,6.1391-8.038,9.6682c-0.8755-1.3431-1.6677-2.8248-2.2426-4.5399
		c-0.1741-0.5196-0.3296-0.6882-0.5607-0.6882s-0.3868,0.1686-0.5609,0.6882c-1.364,4.0697-3.9357,6.8375-5.9729,9.5141
		C39.0665,43.4377,35.7585,44,32,44C14.6116,44,6.8218,32.0017,4.6567,27.8748c-0.4517-0.861-0.4517-1.8885,0-2.7496
		c3.6639-6.9839,10.4103-12.8331,18.8268-15.054c-4.5694,2.734-7.6386,7.7167-7.6386,13.4288c0,8.646,7.009,15.655,15.655,15.655
		S47.155,32.146,47.155,23.5c0-6.3983-3.8373-12.037-11.5958-14.0206c-0.265-0.0677-0.2603-0.2509-0.241-0.3569
		c10.5017,0.9969,19.283,6.9637,24.025,16.0027C59.795,25.9862,59.795,27.0137,59.3433,27.8748z"/>
</g>
</svg>
