<?xml version="1.0" encoding="utf-8"?>
<!-- Generator: Adobe Illustrator 19.1.0, SVG Export Plug-In . SVG Version: 6.00 Build 0)  -->
<svg version="1.2" baseProfile="tiny" id="Layer_1" xmlns="http://www.w3.org/2000/svg" xmlns:xlink="http://www.w3.org/1999/xlink"
	 x="0px" y="0px" width="64px" height="64px" viewBox="-249 251 64 64" xml:space="preserve">
<g id="Box">
	<rect x="-249" y="251" width="64" height="64"/>
</g>
<g id="Icon">
	<g>
		<path fill="#FFFFFF" d="M-200,259h-34c-0.5522,0-1,0.4477-1,1v46c0,0.5523,0.4478,1,1,1h34c0.5523,0,1-0.4477,1-1v-46
			C-199,259.4477-199.4477,259-200,259z M-230,275h11v3h-11V275z M-230,280h11v3h-11V280z M-230,285h11v3h-11V285z M-211,300h-19v-3
			h19V300z M-204,295h-26v-3h26V295z M-204,288h-12v-13h12V288z M-204,271h-26v-5h26V271z"/>
	</g>
</g>
</svg>
