<?xml version="1.0" encoding="utf-8"?>
<!-- Generator: Adobe Illustrator 19.1.0, SVG Export Plug-In . SVG Version: 6.00 Build 0)  -->
<svg version="1.2" baseProfile="tiny" xmlns="http://www.w3.org/2000/svg" xmlns:xlink="http://www.w3.org/1999/xlink" x="0px"
	 y="0px" width="64px" height="64px" viewBox="0 0 64 64" xml:space="preserve">
<g id="Box">
	<rect fill="none" width="64" height="64"/>
</g>
<g id="Icon">
	<g>
		<path d="M3.2109,22.5673l5.7293,1.386c0.8217,0.1987,1.6615-0.2521,1.9498-1.0469l0.0103-0.0282
			c0.2883-0.7947-0.0671-1.6791-0.8251-2.0535L4.7898,18.215c-0.8016-0.3958-1.7692-0.007-2.0741,0.8334l-0.5621,1.5494
			C1.8488,21.4382,2.342,22.3571,3.2109,22.5673z"/>
		<path d="M53.173,22.9064c0.2883,0.7947,1.1281,1.2456,1.9498,1.0469l5.7292-1.386c0.869-0.2101,1.3622-1.129,1.0574-1.9694
			l-0.5621-1.5494c-0.3049-0.8404-1.2726-1.2292-2.0742-0.8334l-5.2853,2.6097c-0.758,0.3743-1.1134,1.2588-0.8251,2.0535
			L53.173,22.9064z"/>
		<path d="M60.8521,32.4921l-5.7292-1.3859c-0.8217-0.1987-1.6615,0.2521-1.9498,1.0468l-0.0102,0.0282
			c-0.2883,0.7947,0.0671,1.6791,0.8251,2.0535l5.2853,2.6097c0.8016,0.3958,1.7693,0.007,2.0742-0.8334l0.5621-1.5494
			C62.2144,33.6212,61.7211,32.7023,60.8521,32.4921z"/>
		<path d="M10.9003,32.1812L10.89,32.153c-0.2883-0.7947-1.1281-1.2455-1.9498-1.0468l-5.7293,1.3859
			c-0.8689,0.2101-1.3622,1.129-1.0573,1.9695l0.5621,1.5494c0.3049,0.8404,1.2725,1.2292,2.0741,0.8334l5.2853-2.6097
			C10.8331,33.8604,11.1885,32.976,10.9003,32.1812z"/>
		<path d="M51.8405,43.7607c-1.2114-1.817-1.9973-3.8839-2.2992-6.0468l-2.7928-20.0063
			c-1.2984-5.5179-5.5215-9.7267-10.7933-11.1523C35.7313,4.5582,34.0568,3,32,3s-3.7313,1.5582-3.9552,3.5553
			c-5.2718,1.4256-9.4949,5.6343-10.7933,11.1523l-2.7928,20.0063c-0.3019,2.1629-1.0878,4.2298-2.2992,6.0468l-3.7611,5.7167
			C7.3945,50.9831,8.4739,53,10.2836,53h25.4341c0,0,0.1382,0.5415-0.441,0.6426c-0.2878,0.0503-4.891,0.6033-9.6758,1.1789
			C26.6845,57.2816,29.1389,59,32,59c3.5255,0,6.4341-2.609,6.9205-6h14.7959c1.8097,0,2.8891-2.0169,1.8853-3.5226L51.8405,43.7607
			z"/>
	</g>
</g>
</svg>
