<?xml version="1.0" encoding="utf-8"?>
<!-- Generator: Adobe Illustrator 19.1.0, SVG Export Plug-In . SVG Version: 6.00 Build 0)  -->
<svg version="1.2" baseProfile="tiny" xmlns="http://www.w3.org/2000/svg" xmlns:xlink="http://www.w3.org/1999/xlink" x="0px"
	 y="0px" width="64px" height="64px" viewBox="0 0 64 64" xml:space="preserve">
<g id="_x36_4px_Box">
	<rect width="64" height="64"/>
</g>
<g id="Icon">
	<g>
		<path fill="#FFFFFF" d="M25.499,33.4888c-0.5943-0.3779-1.0937-0.8806-1.4861-1.4888H5V5h38v3.1223
			c1.5993-0.2507,2.913-0.0727,4,0.3693V3c0-1.1045-0.8955-2-2-2H3C1.8955,1,1,1.8955,1,3v31c0,1.1045,0.8955,2,2,2h23.3116
			C25.9683,35.1758,25.6902,34.3368,25.499,33.4888z"/>
		<path fill="#FFFFFF" d="M42.4199,10.4839c-2.297-1.2793-3.8609-2.0801-7.8854-0.9281c-2.7963,0.8003-5.8569,2.1073-7.4696,4.288
			c-1.7083,2.3104-0.9725,8.7151-0.4395,12.0599c-0.2-0.0259-0.4181-0.0172-0.6414,0.073C25.4579,26.1899,25.2,26.8784,25.2,28.151
			c0,1.2728,0.3766,3.3143,2.259,3.8182c0.4278,3.1877,2.1379,6.0856,4.3621,8.283c-0.205,1.0925-0.4637,2.5928-0.6512,4.0232
			c-0.4979,3.7977,4.3223,7.8955,6.8301,9.583c3.3478-2.2528,7.3307-5.9913,6.7496-10.1361c-3.6262,2.908-7.7,2.1835-9.8272-1.2887
			c2.2642,0.7002,5.9133,0.5068,7.4043-0.5836c1.3443-0.9831,2.5772-2.2266,3.6018-3.6367
			c-1.1721,0.4598-2.5685,0.7234-4.0249,0.6771C41.7688,39.2479,41.3808,39.5,40.9232,39.5h-3.762C36.666,39.5,36,39,36,38
			s0.666-1.5,1.1613-1.5h3.762c0.4619,0,0.8553,0.2559,0.9868,0.6185l0.0001,0.0258c1.1152,0.0298,4.9619-0.0448,6.1083-2.9897
			c0.2715-0.6974,0.4221-1.4374,0.5224-2.1854C50.4233,31.4653,50.8,29.4238,50.8,28.151c0-1.2726-0.2581-1.9611-0.7841-2.1743
			c-0.2396-0.0968-0.4733-0.1002-0.6844-0.0665c0.4835-3.3569,1.1956-9.8115-0.0615-12.1355
			C47.7416,10.9491,45.922,9.5574,42.4199,10.4839z M48.0979,16.2766c0.3478,3.1465-0.284,8.9724-0.8329,11.0748
			C47.01,28.3281,46,28.1582,46,28.1582c-0.0024,0.0011,0-5.509,0-5.509l-5.2749-3.8501C36.077,21.332,32.043,21.9043,30,22.05
			c0,0,0.0026,6.1097,0,6.1082c0,0-1.0099,0.1699-1.265-0.8068c-0.2253-0.8632-0.6535-3.0402-0.8412-6.2303
			c-0.065-0.9133-0.1002-1.5984-0.0938-3.1538c0.0096-2.3634,0.4797-4.7164,7.2266-6.6492c1.1475-0.3287,2.0848-0.488,2.8677-0.488
			c1.4855,0,2.415,0.5846,4.34,1.6565c0.771-0.2039,1.5172-0.4343,2.301-0.4343C46.5532,12.0522,47.8759,14.269,48.0979,16.2766z"/>
		<path fill="#FFFFFF" d="M58.6128,48.1104c-2.2923-2.4929-9.0969-4.696-11.7958-5.4961c0.0681,0.4524,0.134,0.9131,0.1947,1.376
			c0.834,6.3721-8.0596,11.8838-8.4385,12.1152c-0.1758,0.1074-0.375,0.1611-0.5732,0.1611s-0.3975-0.0537-0.5732-0.1611
			c-0.3789-0.2314-9.2725-5.7432-8.4385-12.1152c0.0607-0.4629,0.1266-0.9236,0.1947-1.3761
			c-2.6989,0.8002-9.5035,3.0033-11.7958,5.4962C14.5137,51.2344,13,63,13,63h50C63,63,61.4863,51.2344,58.6128,48.1104z"/>
	</g>
</g>
</svg>
