<?xml version="1.0" encoding="utf-8"?>
<!-- Generator: Adobe Illustrator 19.1.0, SVG Export Plug-In . SVG Version: 6.00 Build 0)  -->
<svg version="1.2" baseProfile="tiny" xmlns="http://www.w3.org/2000/svg" xmlns:xlink="http://www.w3.org/1999/xlink" x="0px"
	 y="0px" width="64px" height="64px" viewBox="0 0 64 64" xml:space="preserve">
<g id="_x36_4px_Box">
	<rect width="64" height="64"/>
</g>
<g id="Icon">
	<g>
		<path fill="#FFFFFF" d="M9.7686,42.6211c1.1487-1.2496,3.6763-2.658,7.4844-4.194c-0.996-0.3911-2.0394-0.702-2.7065-0.8807
			c-0.2935-0.0858-0.4926-0.3406-0.5735-0.6301c-0.105-0.3757-0.1365-0.8487-0.1365-0.8487
			c0.781-0.9018,1.3604-1.9852,1.5603-3.4045c0.7861-0.2426,0.9434-1.2256,0.9434-1.8385c0-0.6128-0.1077-0.9443-0.3275-1.047
			c-0.1921-0.0895-0.3706-0.0224-0.4873,0.0437c0.1219-1.2521,0.2977-3.8617-0.2307-4.8296
			c-0.5672-1.0389-1.2563-1.4539-2.5705-1.1143c-0.8619-0.469-1.4487-1.0612-2.9589-0.6389
			c-1.0493,0.2933-2.1978,0.826-2.8029,1.6252c-0.679,0.8971-0.5159,3.7424-0.4039,5.0156
			c-0.0746-0.0586-0.3187-0.225-0.5828-0.1019c-0.2198,0.1027-0.3275,0.4342-0.3275,1.047c0,0.6129,0.1573,1.5959,0.9435,1.8385
			c0.1761,1.4678,0.7459,2.5063,1.5109,3.3729c0,0-0.0189,0.4437-0.1028,0.8654c-0.0605,0.3044-0.2539,0.5657-0.5554,0.6492
			c-1.2356,0.3421-4.1539,1.2314-5.1164,2.2356C1.0995,41.0676,1,45.894,1,45.894h6.8629
			C8.4164,44.5633,9.047,43.4054,9.7686,42.6211z"/>
		<path fill="#FFFFFF" d="M50.3865,35.8939c-0.0911,0.8093-0.114,0.8647-0.2019,1.3774c-0.0482,0.2817-0.2211,0.5273-0.4938,0.6274
			c-0.4913,0.1805-1.2811,0.4823-2.1158,0.8417c3.3145,1.3757,5.5493,2.6761,6.6573,3.8802v0.0005
			c0.6999,0.7609,1.3135,1.8749,1.8552,3.1553H63c0,0-0.0594-3.9271-1.2819-5.1891c-0.4171-0.4307-1.248-0.9001-2.1619-1.3327
			c-1.1968-0.5806-2.5345-1.0942-3.2469-1.356c-0.2726-0.1002-0.4456-0.3458-0.4938-0.6274
			c-0.0598-0.3496-0.1268-0.8679-0.1794-1.3043c1.805-0.0719,3.2979-0.2465,3.9186-0.4783
			c0.1226-0.0458,0.1846-0.1561,0.1299-0.2731c-0.3397-0.7266-1.2224-3.1164-1.3333-4.3644
			c-0.2726-3.0632-0.2613-8.5451-4.5412-7.1698c0,0-2.7179-1.7026-4.9254,1.1459c-1.553,2.0042-1.1747,4.6468-1.2368,6.1204
			c-0.0442,1.0481-0.9188,3.4682-1.2869,4.0951c-0.0784,0.1335-0.0516,0.2686,0.096,0.321
			C47.1232,35.6009,48.6233,35.7847,50.3865,35.8939z"/>
		<path fill="#FFFFFF" d="M34.6219,51.9944c1.9344-2.0438,4.2517-4.9563,5.6174-8.3176c0.8662-2.1332,0.6755-4.0686,0.2496-5.4996
			c-0.7872,0.7838-1.6058,1.5905-2.416,2.1876C36.2065,41.7406,33.4667,42.1,31.9998,42.1c-1.467,0-4.2068-0.3594-6.0728-1.7351
			c-0.5311-0.3915-1.4317-1.205-2.4236-2.1842c-0.4244,1.4271-0.6108,3.3567,0.2574,5.4961
			c1.3687,3.3691,3.6846,6.2803,5.6174,8.3214c0.3569-1.1976,0.7892-2.2877,1.2429-3.5649
			c-0.9783-1.4999-2.2961-3.8301-2.2961-3.8301s1.1221-1.8278,3.675-1.8278s3.675,1.8278,3.675,1.8278s-1.3177,2.3302-2.2961,3.8301
			C33.8348,49.7168,34.2662,50.8015,34.6219,51.9944z"/>
		<path fill="#FFFFFF" d="M21.459,27.9692C22,32,24.5778,35.5863,27.6732,37.85c1.8154,1.3281,6.8375,1.3281,8.6535,0
			C39.4221,35.5863,42,32,42.5408,27.9692C44.4233,27.4653,44.8,25.4238,44.8,24.151c0-1.2726-0.2581-1.9611-0.7841-2.1743
			c-0.2396-0.0968-0.4733-0.1002-0.6844-0.0665c0.4835-3.3569,1.1956-9.8115-0.0615-12.1355
			c-1.5283-2.8256-3.348-4.2173-6.8501-3.2908c-2.297-1.2793-3.8609-2.0801-7.8854-0.9281
			c-2.7963,0.8003-5.8569,2.1073-7.4696,4.288c-1.7083,2.3104-0.9725,8.7151-0.4395,12.0599c-0.2-0.0259-0.4181-0.0172-0.6414,0.073
			C19.4579,22.1899,19.2,22.8784,19.2,24.151C19.2,25.4238,19.5766,27.4653,21.459,27.9692z M29.0267,7.3181
			c1.1475-0.3287,2.0848-0.488,2.8677-0.488c1.4855,0,2.415,0.5846,4.34,1.6565c0.771-0.2036,1.5172-0.4343,2.301-0.4343
			c2.063,0,3.3826,2.2739,3.5846,4.4421c0.2972,3.1906-0.3185,8.8022-0.855,10.8571C41.01,24.3281,40,24.1582,40,24.1582
			c-0.0024,0.0011,0-5.509,0-5.509l-5.2749-3.8501C30.077,17.332,26.043,17.9043,24,18.05c0,0,0.0026,6.1097,0,6.1082
			c0,0-1.0099,0.1699-1.265-0.8068c-0.2253-0.8632-0.6535-3.0402-0.8412-6.2303c-0.065-0.9133-0.0938-1.5984-0.0938-3.1538
			C21.8194,11.604,22.2797,9.2507,29.0267,7.3181z"/>
		<path fill="#FFFFFF" d="M52.6128,44.1104c-0.6936-0.7543-2.0028-1.5404-3.5123-2.277c0.0007,0.0201,0.006,0.039,0.006,0.0593
			c0,0.8745-0.7119,1.5859-1.5859,1.5859s-1.585-0.7114-1.585-1.5859c0-0.4877,0.2261-0.9193,0.5735-1.2103
			c-1.2192-0.4995-2.424-0.9458-3.4329-1.3009c0.1782,1.512,0.0619,3.2687-0.7061,5.1606
			c-1.8588,4.5768-5.2137,8.2922-7.4448,10.4206c-0.8174-0.6569-1.8412-1.0666-2.9692-1.0666c-1.106,0-2.1124,0.3937-2.9225,1.0277
			c-2.2311-2.1349-5.5566-5.8337-7.4037-10.3817c-0.7687-1.8938-0.8845-3.6521-0.7056-5.1649
			c-0.9373,0.338-2.1556,0.7965-3.4164,1.3192c0.3378,0.291,0.5566,0.7166,0.5566,1.1964c0,0.8745-0.7109,1.5859-1.585,1.5859
			s-1.5859-0.7114-1.5859-1.5859c0-0.0101,0.0028-0.0194,0.003-0.0294c-1.5161,0.739-2.8434,1.5229-3.5093,2.2472
			c-2.1425,2.3293-3.5403,9.4581-4.1094,12.9357c-0.1919,1.1724-0.3719,2.801-0.739,5.954H57.564
			c-0.1267-0.9347-0.3191-2.2942-0.4598-3.2805C56.5865,56.0894,55.1535,46.8726,52.6128,44.1104z M15.9248,45.4111
			c0-0.874,0.7109-1.5854,1.585-1.5854s1.5859,0.7114,1.5859,1.5854c0,0.8745-0.7119,1.5859-1.5859,1.5859
			S15.9248,46.2856,15.9248,45.4111z M17.6816,48.6831c0-0.874,0.7109-1.5854,1.585-1.5854s1.5859,0.7114,1.5859,1.5854
			c0,0.8745-0.7119,1.5859-1.5859,1.5859S17.6816,49.5576,17.6816,48.6831z M19.9375,51.5898c0-0.874,0.7119-1.5854,1.5859-1.5854
			s1.585,0.7114,1.585,1.5854c0,0.8745-0.7109,1.5859-1.585,1.5859S19.9375,52.4644,19.9375,51.5898z M24.0605,55.8779
			c-0.874,0-1.585-0.7114-1.585-1.5859c0-0.874,0.7109-1.5854,1.585-1.5854s1.5859,0.7114,1.5859,1.5854
			C25.6465,55.1665,24.9346,55.8779,24.0605,55.8779z M27.0352,58.2007c-0.874,0-1.585-0.7114-1.585-1.5854
			s0.7109-1.5854,1.585-1.5854s1.5859,0.7114,1.5859,1.5854S27.9092,58.2007,27.0352,58.2007z M31.9956,61.2976
			c-1.5302,0-2.7707-1.2405-2.7707-2.7707c0-1.5303,1.2405-2.7708,2.7707-2.7708c1.5303,0,2.7708,1.2405,2.7708,2.7708
			C34.7664,60.0571,33.5259,61.2976,31.9956,61.2976z M36.9648,58.2007c-0.874,0-1.5859-0.7114-1.5859-1.5854
			s0.7119-1.5854,1.5859-1.5854s1.5859,0.7114,1.5859,1.5854S37.8389,58.2007,36.9648,58.2007z M39.9395,55.8779
			c-0.874,0-1.5859-0.7114-1.5859-1.5859c0-0.874,0.7119-1.5854,1.5859-1.5854s1.585,0.7114,1.585,1.5854
			C41.5244,55.1665,40.8135,55.8779,39.9395,55.8779z M42.4766,53.1758c-0.874,0-1.585-0.7114-1.585-1.5859
			c0-0.874,0.7109-1.5854,1.585-1.5854s1.5859,0.7114,1.5859,1.5854C44.0625,52.4644,43.3506,53.1758,42.4766,53.1758z
			 M44.7334,50.269c-0.874,0-1.5859-0.7114-1.5859-1.5859c0-0.874,0.7119-1.5854,1.5859-1.5854s1.585,0.7114,1.585,1.5854
			C46.3184,49.5576,45.6074,50.269,44.7334,50.269z M46.4902,46.9971c-0.874,0-1.5859-0.7114-1.5859-1.5859
			c0-0.874,0.7119-1.5854,1.5859-1.5854s1.585,0.7114,1.585,1.5854C48.0752,46.2856,47.3643,46.9971,46.4902,46.9971z"/>
	</g>
</g>
</svg>
