<?xml version="1.0" encoding="utf-8"?>
<!-- Generator: Adobe Illustrator 19.1.0, SVG Export Plug-In . SVG Version: 6.00 Build 0)  -->
<svg version="1.2" baseProfile="tiny" xmlns="http://www.w3.org/2000/svg" xmlns:xlink="http://www.w3.org/1999/xlink" x="0px"
	 y="0px" width="64px" height="64px" viewBox="0 0 64 64" xml:space="preserve">
<g id="_x36_4px_Box">
	<rect fill="none" width="64" height="64"/>
</g>
<g id="Icon">
	<g>
		<path d="M39.5278,39.9512l3.7025-0.6844c-2.4959-1.1479-5.3107-2.0734-7.0035-2.5867c-0.155-1.1155-0.3614-2.4073-0.5466-3.4836
			c1.7886-2.1667,2.8874-4.4047,3.2495-6.6968c1.3281-1.2195,2.0679-3.1657,2.0679-5.5557c0-0.7448,0.0012-2.7025-1.2268-4.0366
			c0.3037-3.3378,0.515-8.5034-0.7869-10.587c-1.6026-2.5649-3.5499-3.8159-7.2632-2.9775
			c-2.4355-1.1577-4.0937-1.8823-8.3608-0.8398c-2.9649,0.7241-6.21,1.9067-7.92,3.8798c-1.652,1.9066-1.5394,7.2238-1.2741,10.6054
			c-1.1589,1.332-1.1634,3.2256-1.1634,3.9557c0,2.386,0.7374,4.3299,2.0613,5.5497c0.3819,2.5118,1.613,4.9141,3.7106,7.2619
			c-0.106,0.807-0.2283,1.7498-0.353,2.7313c-2.5129,0.7345-9.6714,2.9969-12.0341,5.5665C3.5137,45.1773,2,56.9429,2,56.9429h35
			v-4.4833c-1.2242-1.0992-2-2.6885-2-4.4595c0-1.4016,0.4868-2.6895,1.295-3.7119c-0.0972-0.9426,0.1221-1.8804,0.6654-2.6699
			C37.5659,40.7383,38.4775,40.1465,39.5278,39.9512z M27.6572,36.7025c3.1548,0.8349,5.4595-0.9139,5.4595-0.9139
			s0.2828,1.9133,0.2745,2.4157c0.3267,3.4883-3.5568,7.3169-6.0102,9.0784c-2.3003-1.75-6.5919-5.5302-6.1588-9.0224
			c0.237-1.9129,0.0408-0.5492,0.8235-5.4371c-2.2767-2.1999-4.1043-4.8665-4.1043-8.061C16.3237,24.2583,15.9,22.2168,15.9,20.9439
			c0-1.2725,0.3217-1.9611,0.7738-2.1743c0.3921-0.1845,0.7725-0.0476,1.013,0.0886c0.1414,0.6527,0.2483,1.1383,0.2898,1.3098
			C18.1826,21.0191,19,20.9409,19,20.9409v-6.7451c2.0731-0.1505,6.1937-0.7531,10.7499-3.1062L35,14.6158v6.3251
			c0,0,0.8174,0.0782,1.0234-0.7729c0.0416-0.1715,0.1484-0.6571,0.2899-1.3098c0.2405-0.1362,0.6208-0.2731,1.0129-0.0886
			c0.4521,0.2133,0.7739,0.9018,0.7739,2.1743c0,1.2729-0.4237,3.3144-2.0414,3.8183c0,3.7027-2.5334,6.4958-5.3403,8.8846
			c-0.7807,0.6644-2.2499,1.1066-3.7188,1.1055c-1.0628-0.0008-2.1255-0.2865-2.9271-0.6349
			C24.6862,35.0479,25.7277,36.1918,27.6572,36.7025z"/>
		<path d="M60.0033,48L58,51h-3l2.0033-3h-3L52,51h-3l2.0033-3h-3L46,51h-3l2.0033-3H44c0-0.2501-0.0396-0.4893-0.0973-0.7216
			L61.6333,44l-0.7273-3.9333c-0.1004-0.5431-0.6221-0.9019-1.1651-0.8015l-2.9656,0.5483l2.5277,2.5835l-2.95,0.5454
			l-2.5278-2.5834l-2.9344,0.5425l2.5121,2.5864l-2.95,0.5455l-2.5121-2.5864l-2.95,0.5455l2.5121,2.5864l-2.95,0.5454
			l-2.5121-2.5864l-1.9667,0.3636c-0.543,0.1004-0.9019,0.6221-0.8015,1.1652l0.2475,1.3385C38.6163,45.9219,38,46.8842,38,48
			c0,1.3043,0.8375,2.403,2,2.8163V60c0,0.5522,0.4477,1,1,1h20c0.5523,0,1-0.4478,1-1V48H60.0033z"/>
	</g>
</g>
</svg>
