<?xml version="1.0" encoding="utf-8"?>
<!-- Generator: Adobe Illustrator 19.1.0, SVG Export Plug-In . SVG Version: 6.00 Build 0)  -->
<svg version="1.2" baseProfile="tiny" xmlns="http://www.w3.org/2000/svg" xmlns:xlink="http://www.w3.org/1999/xlink" x="0px"
	 y="0px" width="64px" height="64px" viewBox="0 0 64 64" xml:space="preserve">
<g id="_x36_4px_Box">
	<rect width="64" height="64"/>
</g>
<g id="Icon">
	<g>
		<path fill="#FFFFFF" d="M26.3753,16h5.6248h6.6248c1.451,0,2.7108-0.9668,2.9964-2.3259
			c0.3403-1.6202,0.3303-2.0484,0.3473-3.5156c0.0087-0.7534-0.5296-1.4023-1.2728-1.5262l-1.8253-0.3042
			c-0.9433,1.7096-1.9902,2.7044-2.2794,2.938c-0.6104,0.4933-0.9493,0.5424-1.1351,0.3608c0.0104-0.0157,0.017-0.0322,0.027-0.048
			c0.9333-0.9083,1.5171-2.1737,1.5171-3.579c0-2.7614-2.2386-5-5-5s-5,2.2386-5,5c0,0.0056,0.0016,0.0106,0.0016,0.0162
			l-2.6973,0.6162c-0.7432,0.1238-1.2816,0.7728-1.2728,1.5262c0.017,1.4672,0.007,1.8953,0.3473,3.5156
			C23.6646,15.0332,24.9243,16,26.3753,16z M32.0001,5.745c1.2454,0,2.255,1.0096,2.255,2.255c0,1.2454-1.0096,2.2549-2.255,2.2549
			S29.7451,9.2454,29.7451,8C29.7451,6.7546,30.7546,5.745,32.0001,5.745z"/>
		<path fill="#FFFFFF" d="M49.0527,11h-5.0958c-0.0189,0.9628-0.0746,1.6395-0.3784,3.0854C43.1017,16.3537,41.0184,18,38.6248,18
			H26.3753c-2.3936,0-4.4769-1.6463-4.9537-3.9147c-0.3037-1.4459-0.3594-2.1225-0.3784-3.0853h-5.0958
			c-0.5233,0-0.9474,0.4384-0.9474,0.9791v45.0417c0,0.5408,0.4241,0.9792,0.9474,0.9792h33.1052
			c0.5233,0,0.9474-0.4384,0.9474-0.9792V11.9791C50.0001,11.4384,49.5759,11,49.0527,11z M42.7606,28.4963l-10.704,17.6013
			c-0.2983,0.4908-0.8311,0.7897-1.4039,0.7897c-0.0024,0-0.0035,0-0.006,0c-0.5753-0.0018-1.1081-0.3049-1.4041-0.7985
			l-7.0092-11.6978c-0.4144-0.6926-0.2652-1.5839,0.3539-2.103c0.6168-0.5198,1.52-0.5126,2.132,0.0165l5.7864,5.0122l9.6255-10.769
			c0.5659-0.6328,1.52-0.7303,2.2043-0.2249C43.0175,26.8282,43.202,27.7708,42.7606,28.4963z"/>
	</g>
</g>
</svg>
