<?xml version="1.0" encoding="utf-8"?>
<!-- Generator: Adobe Illustrator 19.1.0, SVG Export Plug-In . SVG Version: 6.00 Build 0)  -->
<svg version="1.2" baseProfile="tiny" xmlns="http://www.w3.org/2000/svg" xmlns:xlink="http://www.w3.org/1999/xlink" x="0px"
	 y="0px" width="64px" height="64px" viewBox="0 0 64 64" xml:space="preserve">
<g id="Box">
	<rect width="64" height="64"/>
</g>
<g id="Icon">
	<g>
		<path fill="#FFFFFF" d="M57.6727,26.3044c-0.0024-0.0019-1.7918-11.9503-1.9489-12.8821c-0.157-0.9319-1.0214-1.5739-1.9589-1.455
			l-0.0043,0.0006c-0.9381,0.1188-1.6151,0.9572-1.5338,1.8993c0.0812,0.9421,0.8624,11.0061,0.8893,11.5028
			c0.0265,0.4887-0.3998,0.88-0.8659,0.7307c-0.0048-0.0016-0.0095-0.0031-0.0143-0.0046c-0.2479-0.079-0.433-0.2854-0.4727-0.5425
			S49.5595,9.4713,49.3749,8.3766c-0.1845-1.0945-1.1997-1.8486-2.301-1.709l-0.005,0.0006
			c-1.1019,0.1397-1.897,1.1243-1.8015,2.231c0.0955,1.1066,1.4766,15.234,1.4969,15.6299c0.02,0.3908-0.2396,0.7432-0.6306,0.76
			c-0.0047,0.0002-0.0094,0.0004-0.014,0.0006c-0.3491,0.0153-0.6572-0.2266-0.7078-0.5723
			C45.3535,24.3175,42.79,8.0828,42.6055,6.9882c-0.1845-1.0945-1.1998-1.8486-2.3011-1.709l-0.0049,0.0006
			c-1.1019,0.1397-1.897,1.1243-1.8016,2.231s2.1993,17.6476,2.2366,18.0662c0.0295,0.3303-0.1652,0.64-0.4833,0.7338
			c-0.0055,0.0016-0.011,0.0033-0.0165,0.0049c-0.3923,0.1161-0.7709-0.1457-0.8553-0.5461
			c-0.1119-0.5313-2.6371-14.4199-2.871-15.5557c-0.2238-1.0873-1.1997-1.8487-2.301-1.709l-0.0049,0.0006
			c-1.1019,0.1397-1.9122,1.1258-1.8016,2.231c0.028,0.2792,0.0917,1.4871,0.1742,3.2042c0.8816,1.012,1.6354,2.1409,2.216,3.3875
			c1.8613,3.9941,1.8838,8.7119,0.0645,13.2827c-0.2925,0.7347-0.592,1.4356-0.8931,2.1229
			c0.9932-0.0442,2.4236-0.1647,4.7607,0.3749c3.9985,0.9231,5.8547,2.989,5.8547,2.989c0.2371,0.2274,0.1703,0.3946,0.1372,0.452
			c0,0-1.9544-1.2473-4.6346-1.8384c-2.3151-0.5106-4.6415-0.3843-6.9398-0.1464c-0.9082,1.9718-1.8256,3.8619-2.5208,5.6403
			c1.9196,2.9472,3.843,5.5462,7.0168,7.6152c5.9308,3.8665,17.4393,2.1541,20.7339-6.4695
			C59.6384,38.0321,58.5504,32.5173,57.6727,26.3044z"/>
		<path fill="#FFFFFF" d="M25.3477,11.707C17.979,9.265,7.0042,14.4214,7.0042,27.1471c0,8.4007,0,15.0101,0,15.0101
			c0,4.7756,2.1058,9.3032,6.0253,11.4963c4.9414,2.765,14.2686,0.7025,14.2686-8.6725c0-4.4628,3.0916-9.099,5.5135-15.1834
			C36.0461,21.6718,32.4176,14.05,25.3477,11.707z M26.3053,28.0865c-0.4987,0.4348-0.8026,0.3314-0.8785,0.2383
			c0.7666-8.1458-2.9171-8.2071-6.251-2.444c5.3312,5.402,4.6469,10.3542,1.4594,13.7197c-1.7851,1.8848-4.8255,2.503-6.0261,1.7303
			c-1.7001-1.0942-1.0588-2.5601,0.1253-4.0072c1.6528-2.02,4.3624-5.8201-0.6639-8.6041
			c-0.6055-0.3354-0.6141-0.8826-0.4183-1.9896c0.3941-2.2285,3.5283-7.4175,6.9416-8.6655
			c3.4977-1.2789,6.8613,0.8184,7.4594,4.297C28.4233,24.514,27.6584,26.9067,26.3053,28.0865z"/>
	</g>
</g>
</svg>
