<?xml version="1.0" encoding="utf-8"?>
<!-- Generator: Adobe Illustrator 22.1.0, SVG Export Plug-In . SVG Version: 6.00 Build 0)  -->
<!DOCTYPE svg PUBLIC "-//W3C//DTD SVG 1.1//EN" "http://www.w3.org/Graphics/SVG/1.1/DTD/svg11.dtd">
<svg version="1.1" xmlns="http://www.w3.org/2000/svg" xmlns:xlink="http://www.w3.org/1999/xlink" x="0px" y="0px" width="64px"
	 height="64px" viewBox="0 0 64 64" style="enable-background:new 0 0 64 64;" xml:space="preserve">
<style type="text/css">
	.st0{fill:none;}
	.st1{fill:#FFFFFF;}
</style>
<g id="Box">
	<rect width="64" height="64"/>
</g>
<g id="Icon">
	<g>
		<path class="st1" d="M49.4,23.4L34.6,8.6C34.2,8.2,33.7,8,33.2,8H15c-0.6,0-1,0.4-1,1v46c0,0.6,0.4,1,1,1h34c0.6,0,1-0.4,1-1V24.8
			C50,24.3,49.8,23.8,49.4,23.4z M26.9,41.2l-5.1,8.4c-0.1,0.2-0.4,0.4-0.7,0.4c0,0,0,0,0,0c-0.3,0-0.5-0.1-0.7-0.4L17.1,44
			c-0.2-0.3-0.1-0.8,0.2-1c0.3-0.2,0.7-0.2,1,0l2.8,2.4l4.6-5.1c0.3-0.3,0.7-0.3,1-0.1C27,40.4,27.1,40.9,26.9,41.2z M26.9,30.2
			l-5.1,8.4c-0.1,0.2-0.4,0.4-0.7,0.4c0,0,0,0,0,0c-0.3,0-0.5-0.1-0.7-0.4L17.1,33c-0.2-0.3-0.1-0.8,0.2-1c0.3-0.2,0.7-0.2,1,0
			l2.8,2.4l4.6-5.1c0.3-0.3,0.7-0.3,1-0.1C27,29.4,27.1,29.9,26.9,30.2z M26.9,19.2l-5.1,8.4c-0.1,0.2-0.4,0.4-0.7,0.4c0,0,0,0,0,0
			c-0.3,0-0.5-0.1-0.7-0.4L17.1,22c-0.2-0.3-0.1-0.8,0.2-1c0.3-0.2,0.7-0.2,1,0l2.8,2.4l4.6-5.1c0.3-0.3,0.7-0.3,1-0.1
			C27,18.4,27.1,18.9,26.9,19.2z M44,46H30v-3h14V46z M44,35H30v-3h14V35z M48.1,25.4c-4.7,1.9-8.9,2.7-17.2,2.7c-0.6,0-1-0.5-1-1
			c0.1-8.3,0.8-12.6,2.8-17.2C32.8,9.5,33,9.6,33,9.6V24c0,0.6,0.4,1,1,1h14.4C48.4,25,48.5,25.2,48.1,25.4z"/>
	</g>
</g>
</svg>
