<?xml version="1.0" encoding="utf-8"?>
<!-- Generator: Adobe Illustrator 17.1.0, SVG Export Plug-In . SVG Version: 6.00 Build 0)  -->
<svg version="1.2" baseProfile="tiny" xmlns="http://www.w3.org/2000/svg" xmlns:xlink="http://www.w3.org/1999/xlink" x="0px"
	 y="0px" width="64px" height="64px" viewBox="0 0 64 64" xml:space="preserve">
<g id="_x36_4px_Boxes">
	<rect width="64" height="64"/>
</g>
<g id="Production_diap">
	<g>
		<path fill="#FFFFFF" d="M44.999,12.9539C44.9743,12.4202,44.5344,12,44,12H20c-0.5344,0-0.9743,0.4202-0.999,0.9539L18.3667,18
			h27.2666L44.999,12.9539z"/>
		<path fill="#FFFFFF" d="M18,32l-0.8938,8.0446c-0.0671,0.6039,0.1439,1.2054,0.5735,1.6351l9.7345,9.7345
			C27.7893,51.7893,28.298,52,28.8284,52H46.895c0.5916,0,1.0539-0.5107,0.995-1.0995L46,32H18z M29.2324,50.1626
			c-0.077,0.1852-0.2419,0.1296-0.2419,0.1296v-9.3154c0-0.5356-0.4343-0.97-0.97-0.97h-9.3127c0,0-0.0556-0.1548,0.1296-0.2319
			c2.5365-1.0544,6.2546-1.8801,11.2757-1.8936c0.549-0.0015,1.007,0.4563,1.0056,1.0054
			C31.1058,43.8939,30.2872,47.625,29.2324,50.1626z"/>
		<path fill="#FFFFFF" d="M55,20H9c-1.1046,0-2,0.8954-2,2v17c0,1.1046,0.8954,2,2,2h5.7479l1.2621-11H48.04l1.15,11H55
			c1.1046,0,2-0.8954,2-2V22C57,20.8954,56.1046,20,55,20z M52,27.14c-1.1819,0-2.14-0.9583-2.14-2.14
			c0-1.1819,0.9581-2.14,2.14-2.14s2.14,0.9581,2.14,2.14C54.14,26.1818,53.1819,27.14,52,27.14z"/>
	</g>
</g>
</svg>
