<?xml version="1.0" encoding="utf-8"?>
<!-- Generator: Adobe Illustrator 17.1.0, SVG Export Plug-In . SVG Version: 6.00 Build 0)  -->
<svg version="1.2" baseProfile="tiny" xmlns="http://www.w3.org/2000/svg" xmlns:xlink="http://www.w3.org/1999/xlink" x="0px"
	 y="0px" width="64px" height="64px" viewBox="0 0 64 64" xml:space="preserve">
<g id="_x36_4px_Boxes">
	<rect width="64" height="64"/>
</g>
<g id="Production_diap">
	<g>
		<path fill="#FFFFFF" d="M33.1045,36.3672c-0.335,0.2217-0.7197,0.333-1.1045,0.333s-0.7695-0.1113-1.1045-0.333L8,21.2024V46
			c0,0.3774,0.2174,0.6941,0.5261,0.8644l15.11-11.0344c0,0,0.2284,0.1689,0.0127,0.4337C23.4668,36.4868,16.9211,44.4954,14.874,47
			H49.126c-2.0472-2.5046-8.5928-10.5132-8.7748-10.7363c-0.2157-0.2648,0.0127-0.4337,0.0127-0.4337l15.1099,11.0345
			C55.7826,46.6942,56,46.3774,56,46V21.2024L33.1045,36.3672z"/>
		<path fill="#FFFFFF" d="M55.8499,16.5046C55.6763,16.2085,55.3682,16,55,16H9c-0.3682,0-0.6763,0.2085-0.8499,0.5046L32,32.3018
			L55.8499,16.5046z"/>
	</g>
</g>
</svg>
