<?xml version="1.0" encoding="utf-8"?>
<!-- Generator: Adobe Illustrator 17.1.0, SVG Export Plug-In . SVG Version: 6.00 Build 0)  -->
<svg version="1.2" baseProfile="tiny" xmlns="http://www.w3.org/2000/svg" xmlns:xlink="http://www.w3.org/1999/xlink" x="0px"
	 y="0px" width="64px" height="64px" viewBox="0 0 64 64" xml:space="preserve">
<g id="_x36_4px_Boxes">
	<rect width="64" height="64"/>
</g>
<g id="Production_diap">
	<g>
		<path fill="#FFFFFF" d="M54.9902,13H16.9943c-0.5487,0-0.9935,0.4386-0.9932,0.9873C16.003,18.0105,16.01,33.0867,16.01,35.8906
			c0,6.2969-0.76,5.7637-0.9084,5.6318L12.2156,20H8.1115c-0.6102,0-1.0792,0.5352-0.9903,1.1389
			c0.5585,3.7944,1.7255,11.7234,2.3573,16.0896C10.4287,43.7959,11.3271,50,19,50h29.9414C53.8174,50,56,42.9258,56,35.9141
			V14.0098C56,13.4521,55.5479,13,54.9902,13z M32.3828,43H22.57c0.1794-0.9512,0.304-1.9631,0.3714-3.01h9.9635
			C32.819,41.0678,32.7351,41.812,32.3828,43z M33,38H23v-3h10V38z M33,33H23v-3h10V33z M49,36.9009c0,2.6255-0.3691,4.766-1,6.0991
			H35.4307C35.8731,41.0944,36,39.8403,36,38.0872v-2.2034V30h13V36.9009z M49,26H23v-6h26V26z"/>
	</g>
</g>
</svg>
