<?xml version="1.0" encoding="utf-8"?>
<!-- Generator: Adobe Illustrator 17.1.0, SVG Export Plug-In . SVG Version: 6.00 Build 0)  -->
<svg version="1.2" baseProfile="tiny" xmlns="http://www.w3.org/2000/svg" xmlns:xlink="http://www.w3.org/1999/xlink" x="0px"
	 y="0px" width="64px" height="64px" viewBox="0 0 64 64" xml:space="preserve">
<g id="_x36_4px_Boxes">
	<rect fill="none" width="64" height="64"/>
</g>
<g id="Production">
	<g>
		<path d="M53.8564,14.1172c-0.3427-2.0615-1.9111-3.6299-3.9736-3.9736C43.9219,9.1504,33.9863,9.1504,32,9.1504
			s-11.9219,0-17.8828,0.9932c-2.0625,0.3437-3.6309,1.9121-3.9736,3.9736C9.1504,20.0781,9.1504,30.0137,9.1504,32
			s0,11.9219,0.9932,17.8828c0.3427,2.0615,1.9111,3.6299,3.9736,3.9736C20.0781,54.8496,30.0137,54.8496,32,54.8496
			s11.9219,0,17.8828-0.9932c2.0625-0.3437,3.6309-1.9121,3.9736-3.9736C54.8496,43.9219,54.8496,33.9863,54.8496,32
			C54.8496,26.0361,54.8496,20.0781,53.8564,14.1172z M20.502,48.5435c-3.2521,0-5.045-1.7911-5.045-5.044
			c0-3.2519,1.7929-5.042,5.045-5.042c3.25,0,5.041,1.7901,5.041,5.042C25.543,46.7524,23.752,48.5435,20.502,48.5435z
			 M35.1288,48.9911c-1.0447,0.0149-2.1083,0.0252-3.2088,0.0252c-0.9505,0-1.8763-0.0071-2.7858-0.0182
			c0.8477-1.5088,1.3213-3.317,1.3213-5.3595c0-6.0373-4.0559-10.0937-10.0927-10.0937c-2.0431,0-3.8517,0.4738-5.3609,1.322
			c-0.0111-0.9099-0.0182-1.836-0.0182-2.7869c0-1.1002,0.0103-2.1635,0.0252-3.2079c1.6515-0.547,3.4428-0.8555,5.3539-0.8555
			c9.0514,0,15.621,6.57,15.621,15.622C35.9838,45.5492,35.6756,47.34,35.1288,48.9911z M47.1657,48.3384
			c-1.7248,0.2057-3.8388,0.3695-6.2668,0.4837c0.3867-1.6513,0.6132-3.3787,0.6132-5.1835
			c0-12.0576-9.0922-21.1503-21.1492-21.1503c-1.8053,0-3.5332,0.2266-5.185,0.6136c0.1142-2.4277,0.278-4.5416,0.4837-6.2669
			c1.5209-0.2441,3.089-0.3775,4.7012-0.3775c15.4952,0,27.1802,11.6853,27.1802,27.1811
			C47.543,45.2504,47.4096,46.8179,47.1657,48.3384z"/>
	</g>
</g>
</svg>
