<?xml version="1.0" encoding="utf-8"?>
<!-- Generator: Adobe Illustrator 17.1.0, SVG Export Plug-In . SVG Version: 6.00 Build 0)  -->
<svg version="1.2" baseProfile="tiny" id="Layer_1" xmlns="http://www.w3.org/2000/svg" xmlns:xlink="http://www.w3.org/1999/xlink"
	 x="0px" y="0px" width="64px" height="64px" viewBox="0 0 64 64" xml:space="preserve">
<g id="_x36_4px_Boxes">
	<rect width="64" height="64"/>
</g>
<g id="Production">
	<g>
		<path fill="#FFFFFF" d="M26.3753,16H32h6.6248c1.451,0,2.7108-0.9668,2.9964-2.3259c0.3403-1.6202,0.3303-2.0484,0.3473-3.5156
			c0.0087-0.7534-0.5296-1.4023-1.2728-1.5262l-1.8253-0.3042c-0.9433,1.7096-1.9902,2.7044-2.2794,2.938
			c-0.6104,0.4933-0.9493,0.5424-1.1351,0.3608c0.0104-0.0157,0.017-0.0322,0.027-0.048C36.4163,10.6707,37,9.4053,37,8
			c0-2.7614-2.2386-5-5-5s-5,2.2386-5,5c0,0.0056,0.0016,0.0106,0.0016,0.0162l-2.6973,0.6162
			c-0.7432,0.1238-1.2816,0.7728-1.2728,1.5262c0.017,1.4672,0.007,1.8953,0.3473,3.5156C23.6645,15.0332,24.9243,16,26.3753,16z
			 M32,5.745c1.2454,0,2.255,1.0096,2.255,2.255S33.2454,10.2549,32,10.2549S29.745,9.2454,29.745,8S30.7546,5.745,32,5.745z"/>
		<path fill="#FFFFFF" d="M49.0526,11h-5.0958c-0.0189,0.9628-0.0746,1.6395-0.3784,3.0854C43.1017,16.3537,41.0184,18,38.6248,18
			H26.3753c-2.3936,0-4.4769-1.6463-4.9537-3.9147c-0.3037-1.4459-0.3594-2.1225-0.3784-3.0853h-5.0958
			C15.4242,11,15,11.4384,15,11.9791v45.0417C15,57.5616,15.4242,58,15.9474,58h33.1052C49.5759,58,50,57.5616,50,57.0208V11.9791
			C50,11.4384,49.5759,11,49.0526,11z M29.2769,43.9396l-5.5049,9.0521c-0.1534,0.2524-0.4274,0.4061-0.722,0.4061
			c-0.0013,0-0.0018,0-0.0031,0c-0.2958-0.0009-0.5699-0.1568-0.7221-0.4107l-3.6047-6.016
			c-0.2131-0.3562-0.1364-0.8145,0.182-1.0815c0.3172-0.2673,0.7817-0.2636,1.0965,0.0085l2.9759,2.5777l4.9502-5.5384
			c0.291-0.3254,0.7817-0.3756,1.1337-0.1157C29.409,43.0818,29.5039,43.5665,29.2769,43.9396z M29.2769,32.9396l-5.5049,9.0521
			c-0.1534,0.2524-0.4274,0.4061-0.722,0.4061c-0.0013,0-0.0018,0-0.0031,0c-0.2958-0.0009-0.5699-0.1568-0.7221-0.4107
			l-3.6047-6.016c-0.2131-0.3562-0.1364-0.8145,0.182-1.0815c0.3172-0.2673,0.7817-0.2636,1.0965,0.0085l2.9759,2.5777
			l4.9502-5.5384c0.291-0.3254,0.7817-0.3756,1.1337-0.1157C29.409,32.0818,29.5039,32.5665,29.2769,32.9396z M29.2769,21.9396
			l-5.5049,9.0521c-0.1534,0.2524-0.4274,0.4061-0.722,0.4061c-0.0013,0-0.0018,0-0.0031,0
			c-0.2958-0.0009-0.5699-0.1568-0.7221-0.4107l-3.6047-6.016c-0.2131-0.3562-0.1364-0.8145,0.182-1.0815
			c0.3172-0.2673,0.7817-0.2636,1.0965,0.0085l2.9759,2.5777l4.9502-5.5384c0.291-0.3254,0.7817-0.3756,1.1337-0.1157
			C29.409,21.0818,29.5039,21.5665,29.2769,21.9396z M45,50H32v-3h13V50z M45,39H32v-3h13V39z M45,28H32v-3h13V28z"/>
	</g>
</g>
</svg>
