<?xml version="1.0" encoding="utf-8"?>
<!-- Generator: Adobe Illustrator 17.1.0, SVG Export Plug-In . SVG Version: 6.00 Build 0)  -->
<svg version="1.2" baseProfile="tiny" xmlns="http://www.w3.org/2000/svg" xmlns:xlink="http://www.w3.org/1999/xlink" x="0px"
	 y="0px" width="64px" height="64px" viewBox="0 0 64 64" xml:space="preserve">
<g id="Box">
	<rect width="64" height="64"/>
</g>
<g id="Icon">
	<g>
		<path fill="#FFFFFF" d="M49.4142,23.4142L34.5858,8.5857C34.2107,8.2107,33.702,8,33.1716,8H15c-0.5523,0-1,0.4478-1,1v46
			c0,0.5522,0.4477,1,1,1h34c0.5523,0,1-0.4478,1-1V24.8284C50,24.298,49.7893,23.7893,49.4142,23.4142z M23.925,34.5
			c0-1.4222,1.1528-2.575,2.575-2.575s2.575,1.1528,2.575,2.575c0,1.4221-1.1528,2.575-2.575,2.575S23.925,35.9221,23.925,34.5z
			 M38.7942,46.1822c-1.8231-0.9361-4.197-1.4229-6.7942-1.4229s-4.9711,0.4868-6.7942,1.4228
			c-0.4939,0.2536-0.9908-0.3066-0.7058-0.783c1.4068-2.3506,4.2371-4.5521,7.5-4.5521s6.0932,2.2015,7.5,4.5521
			C39.7851,45.8755,39.2881,46.4358,38.7942,46.1822z M37.5,37.075c-1.4222,0-2.575-1.1529-2.575-2.575
			c0-1.4222,1.1528-2.575,2.575-2.575s2.575,1.1528,2.575,2.575C40.075,35.9221,38.9222,37.075,37.5,37.075z M48.1349,25.3599
			c-4.6738,1.9428-8.9175,2.6923-17.2404,2.7468c-0.5556,0.0037-1.0149-0.4556-1.0112-1.0112
			c0.0552-8.3221,0.814-12.5565,2.7568-17.2303C32.7774,9.5349,33,9.634,33,9.634V24c0,0.5522,0.4477,1,1,1h14.3659
			C48.3659,25,48.4651,25.2227,48.1349,25.3599z"/>
	</g>
</g>
</svg>
