<?xml version="1.0" encoding="utf-8"?>
<!-- Generator: Adobe Illustrator 19.1.0, SVG Export Plug-In . SVG Version: 6.00 Build 0)  -->
<svg version="1.2" baseProfile="tiny" xmlns="http://www.w3.org/2000/svg" xmlns:xlink="http://www.w3.org/1999/xlink" x="0px"
	 y="0px" width="64px" height="64px" viewBox="0 0 64 64" xml:space="preserve">
<g id="Box">
	<rect width="64" height="64"/>
</g>
<g id="Icon">
	<path fill="#FFFFFF" d="M49.4142,23.4142L34.5858,8.5857C34.2107,8.2107,33.702,8,33.1716,8H15c-0.5523,0-1,0.4478-1,1v46
		c0,0.5522,0.4477,1,1,1h34c0.5523,0,1-0.4478,1-1V24.8284C50,24.298,49.7893,23.7893,49.4142,23.4142z M24.6245,40.8896
		c0.7471,0,1.1641-0.0381,1.9409-0.1777l0.5239-0.0938v2.2725l-0.353,0.0732c-0.8447,0.1748-1.2295,0.2363-2.229,0.2363
		c-3.1548,0-5.1147-1.8887-5.1147-4.9297c0-3.3232,2.0996-5.4707,5.3491-5.4707c0.7227,0,1.2393,0.0508,1.9751,0.1934l0.3911,0.0771
		l-0.21,2.3125l-0.4741-0.0801c-0.7441-0.124-1.0684-0.1357-1.7407-0.1357c-1.2363,0-2.5571,0.7705-2.5571,2.9326
		C22.126,40.1592,23.4717,40.8896,24.6245,40.8896z M31.1924,43.2002c-0.8984,0-1.5869-0.0293-2.4487-0.1777L28.3774,42.96v-2.3721
		l0.5234,0.0967c0.8643,0.1582,1.5234,0.2197,2.3501,0.2197c0.9326,0,1.6094-0.3359,1.6094-0.7998c0-0.2793,0-0.542-1.1401-0.9229
		l-1.1934-0.3984c-1.3296-0.4385-2.0327-1.3926-2.0327-2.7598c0-1.958,1.6191-3.2236,4.125-3.2236
		c0.7446,0,1.4546,0.0654,2.1094,0.1934l0.3867,0.0752l-0.188,2.293l-0.4819-0.0869c-0.6973-0.1289-1.2339-0.1787-1.9136-0.1787
		c-0.436,0-1.4492,0.0713-1.4492,0.7285c0,0.2734,0.0674,0.5205,0.8979,0.7773l1.1802,0.3711
		c1.5591,0.4922,2.3174,1.4092,2.3174,2.8047C35.478,41.8564,33.7959,43.2002,31.1924,43.2002z M41.9847,43h-3.0013L36,33h2.4977
		l2.0827,7.2653L42.6492,33H45L41.9847,43z M48.1349,25.3599c-4.6738,1.9428-8.9175,2.6923-17.2404,2.7468
		c-0.5556,0.0037-1.0149-0.4556-1.0112-1.0112c0.0552-8.3221,0.814-12.5565,2.7568-17.2303C32.7774,9.5349,33,9.634,33,9.634V24
		c0,0.5522,0.4477,1,1,1h14.3659C48.3659,25,48.4651,25.2227,48.1349,25.3599z"/>
</g>
</svg>
