<?xml version="1.0" encoding="utf-8"?>
<!-- Generator: Adobe Illustrator 19.1.0, SVG Export Plug-In . SVG Version: 6.00 Build 0)  -->
<svg version="1.2" baseProfile="tiny" xmlns="http://www.w3.org/2000/svg" xmlns:xlink="http://www.w3.org/1999/xlink" x="0px"
	 y="0px" width="64px" height="64px" viewBox="0 0 64 64" xml:space="preserve">
<g id="Box">
	<rect width="64" height="64"/>
</g>
<g id="Icon">
	<g>
		<circle fill="#FFFFFF" cx="32" cy="37.5444" r="3.5"/>
		<path fill="#FFFFFF" d="M49.4142,23.4142L34.5858,8.5857C34.2107,8.2107,33.702,8,33.1716,8H15c-0.5523,0-1,0.4478-1,1v46
			c0,0.5522,0.4477,1,1,1h34c0.5523,0,1-0.4478,1-1V24.8284C50,24.298,49.7893,23.7893,49.4142,23.4142z M36.8115,43.9606
			c-1.3251,2.0513-2.8268,4.6313-3.7619,8.2283C32.9252,52.6664,32.4937,53,32,53s-0.9252-0.3336-1.0496-0.8111
			c-0.9351-3.5969-2.4368-6.177-3.7619-8.2283c-1.364-2.1119-2.5417-3.9359-2.5417-6.3768c0-4.1946,3.1612-7.3576,7.3531-7.3576
			s7.3531,3.163,7.3531,7.3576C39.3531,40.0248,38.1754,41.8487,36.8115,43.9606z M48.1349,25.3599
			c-4.6738,1.9428-8.9175,2.6923-17.2404,2.7468c-0.5556,0.0037-1.0149-0.4556-1.0112-1.0112
			c0.0552-8.3221,0.814-12.5565,2.7568-17.2303C32.7774,9.5349,33,9.634,33,9.634V24c0,0.5522,0.4477,1,1,1h14.3659
			C48.3659,25,48.4651,25.2227,48.1349,25.3599z"/>
	</g>
</g>
</svg>
