<?xml version="1.0" encoding="utf-8"?>
<!-- Generator: Adobe Illustrator 19.1.0, SVG Export Plug-In . SVG Version: 6.00 Build 0)  -->
<svg version="1.2" baseProfile="tiny" xmlns="http://www.w3.org/2000/svg" xmlns:xlink="http://www.w3.org/1999/xlink" x="0px"
	 y="0px" width="64px" height="64px" viewBox="0 0 64 64" xml:space="preserve">
<g id="Box">
	<rect width="64" height="64"/>
</g>
<g id="Icon">
	<g>
		<path fill="#FFFFFF" d="M61.435,34.826c-0.1949-1.1729-1.0873-2.0652-2.2607-2.2607C55.7829,32,50.1301,32,49.0001,32
			s-6.7828,0-10.1743,0.5654c-1.1734,0.1955-2.0657,1.0878-2.2607,2.2607C36,38.2173,36,43.8697,36,45
			c0,1.1304,0,6.7827,0.5651,10.174c0.195,1.1728,1.0873,2.0651,2.2607,2.2607C42.2172,58,47.87,58,49.0001,58
			s6.7828,0,10.1742-0.5653c1.1735-0.1956,2.0658-1.0879,2.2607-2.2607C62,51.7827,62,46.1304,62,45
			C62,41.607,62,38.2173,61.435,34.826z M57,46.5c0,0.2761-0.2239,0.5-0.5,0.5H51v5.5c0,0.2761-0.2239,0.5-0.5,0.5h-3
			c-0.2761,0-0.5-0.2239-0.5-0.5V47h-5.5c-0.2761,0-0.5-0.2239-0.5-0.5v-3c0-0.2762,0.2239-0.5,0.5-0.5H47v-5.5
			c0-0.2762,0.2239-0.5,0.5-0.5h3c0.2761,0,0.5,0.2238,0.5,0.5V43h5.5c0.2761,0,0.5,0.2238,0.5,0.5V46.5z"/>
		<path fill="#FFFFFF" d="M48,28.8041V12c0-0.5523-0.4477-1-1-1H5c-0.5523,0-1,0.4477-1,1v34c0,0.5522,0.4477,1,1,1h27.8157
			c-0.0101-0.6978-0.0159-1.3766-0.0159-2c0-3.2148,0.106-7.6807,0.6084-10.6992c0.418-2.5088,2.3838-4.4746,4.8921-4.8916
			C41.0192,28.9553,44.9042,28.8256,48,28.8041z M11.7966,21.3983l1.6017-1.6017L15,21.3983l1.6017-1.6017l1.6017,1.6017L16.6017,23
			l1.6017,1.6017l-1.6017,1.6017L15,24.6017l-1.6017,1.6017l-1.6017-1.6017L13.3983,23L11.7966,21.3983z M11.2855,38L15,31.4375
			L18.7145,38H11.2855z M29,38h-6v-6h6V38z M26,26.8264L22.1736,23L26,19.1736L29.8264,23L26,26.8264z M34,23c0-1.6569,1.3431-3,3-3
			s3,1.3431,3,3s-1.3431,3-3,3S34,24.6569,34,23z"/>
	</g>
</g>
</svg>
