<?xml version="1.0" encoding="utf-8"?>
<!-- Generator: Adobe Illustrator 19.1.0, SVG Export Plug-In . SVG Version: 6.00 Build 0)  -->
<svg version="1.2" baseProfile="tiny" xmlns="http://www.w3.org/2000/svg" xmlns:xlink="http://www.w3.org/1999/xlink" x="0px"
	 y="0px" width="64px" height="64px" viewBox="0 0 64 64" xml:space="preserve">
<g id="_x36_4px_Box">
	<rect width="64" height="64"/>
</g>
<g id="Icon">
	<g>
		<path fill="#FFFFFF" d="M41,14.2729c0-0.5305-0.2107-1.0392-0.5857-1.4142l-7.2729-7.2728C32.7664,5.2107,32.2576,5,31.7272,5H23
			c-0.5522,0-1,0.4477-1,1v23c0,0.5523,0.4478,1,1,1h17c0.5522,0,1-0.4477,1-1V14.2729z M40.0156,14.1622
			c-2.3685,0.9846-4.938,1.8032-9.0577,1.9228c-0.5844,0.017-1.0598-0.4584-1.0428-1.0428
			c0.1196-4.1196,0.9382-6.6892,1.9229-9.0577c0.0724-0.1743,0.1899-0.1219,0.1899-0.1219v7.582
			c0,0.2914,0.2363,0.5278,0.5277,0.5278h7.582C40.1376,13.9722,40.1899,14.0897,40.0156,14.1622z"/>
		<polygon fill="#FFFFFF" points="33,32 30,32 30,41.1685 24,44.9185 24,48.4563 31.5,43.769 39,48.4563 39,44.9185 33,41.1685 		
			"/>
		<path fill="#FFFFFF" d="M14.1414,34.5858C13.7664,34.2107,13.2576,34,12.7272,34H4c-0.5522,0-1,0.4477-1,1v23
			c0,0.5523,0.4478,1,1,1h17c0.5522,0,1-0.4477,1-1V43.2729c0-0.5305-0.2107-1.0392-0.5857-1.4142L14.1414,34.5858z
			 M21.0156,43.1622c-2.3685,0.9846-4.938,1.8032-9.0577,1.9228c-0.5844,0.017-1.0598-0.4584-1.0428-1.0428
			c0.1196-4.1196,0.9382-6.6892,1.9229-9.0577c0.0724-0.1743,0.1899-0.1219,0.1899-0.1219v7.582
			c0,0.2914,0.2363,0.5278,0.5277,0.5278h7.582C21.1376,42.9722,21.1899,43.0897,21.0156,43.1622z"/>
		<path fill="#FFFFFF" d="M59.4143,41.8586l-7.2729-7.2728C51.7664,34.2107,51.2576,34,50.7272,34H42c-0.5522,0-1,0.4477-1,1v23
			c0,0.5523,0.4478,1,1,1h17c0.5522,0,1-0.4477,1-1V43.2729C60,42.7424,59.7893,42.2337,59.4143,41.8586z M59.0156,43.1622
			c-2.3685,0.9846-4.938,1.8032-9.0577,1.9228c-0.5844,0.017-1.0598-0.4584-1.0428-1.0428
			c0.1196-4.1196,0.9382-6.6892,1.9229-9.0577c0.0724-0.1743,0.1899-0.1219,0.1899-0.1219v7.582
			c0,0.2914,0.2363,0.5278,0.5277,0.5278h7.582C59.1376,42.9722,59.1899,43.0897,59.0156,43.1622z"/>
	</g>
</g>
</svg>
