<?xml version="1.0" encoding="utf-8"?>
<!-- Generator: Adobe Illustrator 19.1.0, SVG Export Plug-In . SVG Version: 6.00 Build 0)  -->
<svg version="1.2" baseProfile="tiny" xmlns="http://www.w3.org/2000/svg" xmlns:xlink="http://www.w3.org/1999/xlink" x="0px"
	 y="0px" width="64px" height="64px" viewBox="0 0 64 64" xml:space="preserve">
<g id="_x36_4px_Box">
	<rect width="64" height="64"/>
</g>
<g id="Icon">
	<path fill="#FFFFFF" d="M49,8H30.8284c-0.5305,0-1.0391,0.2107-1.4142,0.5857L14.5858,23.4142
		C14.2107,23.7893,14,24.298,14,24.8284V55c0,0.5522,0.4477,1,1,1h34c0.5523,0,1-0.4478,1-1V9C50,8.4478,49.5523,8,49,8z
		 M15.6341,25H30c0.5523,0,1-0.4478,1-1V9.634c0,0,0.2226-0.0991,0.3599,0.2311c1.9427,4.6738,2.7015,8.9083,2.7568,17.2303
		c0.0037,0.5556-0.4556,1.0149-1.0112,1.0112c-8.3229-0.0546-12.5666-0.804-17.2404-2.7468C15.5349,25.2227,15.6341,25,15.6341,25z
		 M42.7604,31.4944L32.0601,49.2056c-0.2981,0.4904-0.8304,0.7891-1.4029,0.7891c-0.0024,0-0.0035,0-0.006,0
		c-0.5748-0.0018-1.1072-0.3046-1.4028-0.7979l-7.0038-11.6886c-0.4139-0.692-0.265-1.5826,0.3538-2.1013
		c0.6163-0.5193,1.5188-0.5122,2.1304,0.0165l5.7819,5.0084l9.6227-10.8843c0.5654-0.6323,1.5188-0.7297,2.2026-0.2247
		C43.0171,29.8276,43.2015,30.7693,42.7604,31.4944z"/>
</g>
</svg>
