<?xml version="1.0" encoding="utf-8"?>
<!-- Generator: Adobe Illustrator 19.1.0, SVG Export Plug-In . SVG Version: 6.00 Build 0)  -->
<svg version="1.2" baseProfile="tiny" xmlns="http://www.w3.org/2000/svg" xmlns:xlink="http://www.w3.org/1999/xlink" x="0px"
	 y="0px" width="64px" height="64px" viewBox="0 0 64 64" xml:space="preserve">
<g id="_x36_4px_Box">
	<rect width="64" height="64"/>
</g>
<g id="Icon">
	<g>
		<path fill="#FFFFFF" d="M14,21h36c1.6569,0,3-1.3431,3-3v-7c0-1.6569-1.3431-3-3-3H14c-1.6569,0-3,1.3431-3,3v7
			C11,19.6569,12.3431,21,14,21z M16,13.8c1.215,0,2.2,0.9849,2.2,2.2c0,1.215-0.985,2.2-2.2,2.2s-2.2-0.985-2.2-2.2
			C13.8,14.7849,14.785,13.8,16,13.8z"/>
		<path fill="#FFFFFF" d="M14,36h25.2015l4.5358-4.5352C44.6816,30.52,45.9375,30,47.2725,30H53v-4c0-1.6569-1.3431-3-3-3H14
			c-1.6569,0-3,1.3431-3,3v7C11,34.6569,12.3431,36,14,36z M16,28.8c1.215,0,2.2,0.9849,2.2,2.2c0,1.215-0.985,2.2-2.2,2.2
			s-2.2-0.985-2.2-2.2C13.8,29.7849,14.785,28.8,16,28.8z"/>
		<path fill="#FFFFFF" d="M11,41v7c0,1.6569,1.3431,3,3,3h21v-8.7271c0-1.3345,0.5195-2.5898,1.4629-3.5347L37.2013,38H14
			C12.3431,38,11,39.3431,11,41z M16,43.8c1.215,0,2.2,0.9849,2.2,2.2c0,1.215-0.985,2.2-2.2,2.2s-2.2-0.985-2.2-2.2
			C13.8,44.7849,14.785,43.8,16,43.8z"/>
		<path fill="#FFFFFF" d="M56,33h-8.7272c-0.5305,0-1.0392,0.2107-1.4142,0.5858l-7.2728,7.2729
			C38.2107,41.2337,38,41.7424,38,42.2728V57c0,0.5522,0.4477,1,1,1h17c0.5523,0,1-0.4478,1-1V34C57,33.4477,56.5523,33,56,33z
			 M48.0421,44.085c-4.1197-0.1196-6.6892-0.9383-9.0577-1.9229c-0.1743-0.0724-0.1219-0.1899-0.1219-0.1899h7.582
			c0.2914,0,0.5278-0.2363,0.5278-0.5278v-7.5821c0,0,0.1175-0.0523,0.1899,0.122c0.9846,2.3685,1.8032,4.938,1.9228,9.0577
			C49.1019,43.6265,48.6265,44.1019,48.0421,44.085z"/>
	</g>
</g>
</svg>
