<?xml version="1.0" encoding="utf-8"?>
<!-- Generator: Adobe Illustrator 19.1.0, SVG Export Plug-In . SVG Version: 6.00 Build 0)  -->
<svg version="1.2" baseProfile="tiny" xmlns="http://www.w3.org/2000/svg" xmlns:xlink="http://www.w3.org/1999/xlink" x="0px"
	 y="0px" width="64px" height="64px" viewBox="0 0 64 64" xml:space="preserve">
<g id="_x36_4px_Box">
	<rect fill="none" width="64" height="64"/>
</g>
<g id="Icon">
	<g>
		<path d="M43.5822,7.8339c-7.6814-1.1118-15.4077-1.1118-23.0891,0C18.5167,8.1277,17,9.9656,17,11.8312
			c0,13.4459,0,26.8917,0,40.3376c0.0001,1.8657,1.5921,3.7034,3.5685,3.9974c7.6814,1.1118,15.3323,1.1118,23.0137,0
			C45.5588,55.8723,47,54.0343,47,52.1688c0-13.4459,0-26.8917,0-40.3376C47,9.9656,45.5588,8.1277,43.5822,7.8339z M32,54.15
			c-1.4636,0-2.65-1.1864-2.65-2.65s1.1864-2.65,2.65-2.65s2.65,1.1864,2.65,2.65S33.4636,54.15,32,54.15z M43,46H21V14h22V46z"/>
	</g>
</g>
</svg>
