<?xml version="1.0" encoding="utf-8"?>
<!-- Generator: Adobe Illustrator 19.1.0, SVG Export Plug-In . SVG Version: 6.00 Build 0)  -->
<svg version="1.2" baseProfile="tiny" xmlns="http://www.w3.org/2000/svg" xmlns:xlink="http://www.w3.org/1999/xlink" x="0px"
	 y="0px" width="64px" height="64px" viewBox="0 0 64 64" xml:space="preserve">
<g id="_x36_4px_Box">
	<rect width="64" height="64"/>
</g>
<g id="Icon">
	<g>
		<path fill="#FFFFFF" d="M42.9785,37c-0.0021-0.334-0.0082-0.6714-0.0273-1.0183c-0.3512-6.3717-6.5269-13.5938-10.3489-17.208
			c1.0096-0.3193,1.5781-1.369,1.5781-2.6284c0-1.512-0.8096-2.7377-2.2318-2.7377h-0.6354
			c0.8406-1.0117,2.4902-2.442,3.0151-3.6696c1.1143-2.606-1.6959-3.2546-5.5534-4.3236V2.3064
			c0-3.5939-13.2744,1.3347-12.1617,5.2952c0.6542,2.3284,2.2119,4.5305,3.1124,5.8059h-0.6525
			c-1.4222,0-2.2318,1.2257-2.2318,2.7377c0,1.512,0.8096,2.7377,2.2318,2.7377h5.4523c0.019,0.0513,0.0614,0.2394-0.228,0.3322
			c-0.1848,0.0593-4.6376,0.8989-7.835,1.4987c-3.6725,3.8111-8.0961,9.9028-8.3918,15.2678
			c-0.3549,6.4387,2.3828,10.7177,2.3828,10.7177L8.072,50.5093C7.1223,52.0289,8.2148,54,10.0067,54H23V40c0-1.6569,1.3431-3,3-3
			H42.9785z"/>
		<path fill="#FFFFFF" d="M41.6903,53.1401C41.481,53.2831,41.2405,53.3549,41,53.3549s-0.481-0.0718-0.6903-0.2148L26,43.3564
			v15.9984c0,0.2435,0.1359,0.4478,0.3289,0.5577l9.4437-7.119c0,0,0.1427,0.109,0.0079,0.2798
			c-0.1138,0.144-4.2048,5.3108-5.4843,6.9267h21.4076c-1.2795-1.6159-5.3705-6.7827-5.4843-6.9267
			c-0.1348-0.1708,0.0079-0.2798,0.0079-0.2798l9.4437,7.119C55.8641,59.8027,56,59.5983,56,59.3548V43.3564L41.6903,53.1401z"/>
		<path fill="#FFFFFF" d="M26.0938,40.3256L41,50.5173l14.9062-10.1917C55.7977,40.1345,55.6051,40,55.375,40h-28.75
			C26.3949,40,26.2023,40.1345,26.0938,40.3256z"/>
	</g>
</g>
</svg>
