<?xml version="1.0" encoding="utf-8"?>
<!-- Generator: Adobe Illustrator 19.1.0, SVG Export Plug-In . SVG Version: 6.00 Build 0)  -->
<svg version="1.2" baseProfile="tiny" xmlns="http://www.w3.org/2000/svg" xmlns:xlink="http://www.w3.org/1999/xlink" x="0px"
	 y="0px" width="64px" height="64px" viewBox="0 0 64 64" xml:space="preserve">
<g id="_x36_4px_Box">
	<rect width="64" height="64"/>
</g>
<g id="Icon">
	<g>
		<path fill="#FFFFFF" d="M25.4639,40.1785c-1.6175-0.855-3.9042-1.557-5.1591-1.8933c-0.3766-0.11-0.6323-0.4372-0.7361-0.8088
			c-0.1348-0.4822-0.1752-1.0894-0.1752-1.0894c1.0024-1.1575,1.746-2.5481,2.0027-4.3698
			c0.8938-0.2758,1.1534-1.2959,1.2012-2.0724c1.4399-0.2129,2.8746-0.4727,4.2947-0.8209c0.4534-0.1168,0.6654-0.7294,0.3273-0.962
			c-3.6068-2.5167-7.2953-7.0468-10.9871-11.2208c-0.2675-0.3026-0.6702-0.3026-0.9376,0
			c-3.6917,4.1739-7.3802,8.7042-10.9871,11.2208c-0.3384,0.2324-0.1259,0.8451,0.3273,0.962
			c1.408,0.3453,2.8305,0.6031,4.258,0.8154c0.0469,0.7772,0.3054,1.8015,1.2015,2.078c0.2261,1.8841,0.9574,3.217,1.9394,4.3293
			c0,0-0.0243,0.5695-0.132,1.1108c-0.0778,0.3906-0.3259,0.7261-0.7128,0.8333c-1.586,0.4391-5.3318,1.5806-6.5672,2.8695
			C3.0449,42.8049,2.9172,49,2.9172,49h18.7126c0.6407-2.9903,1.668-6.5135,3.1695-8.1533
			C24.9857,40.643,25.2136,40.4169,25.4639,40.1785z"/>
		<path fill="#FFFFFF" d="M58.5782,42.3317c-0.9366-1.0233-2.8371-2.5441-4.7377-3.9725
			c-5.2086,7.1605-12.1123,10.9751-20.5103,12.2652c-0.5228,0.0802-0.4799-0.1937-0.4799-0.1937
			c6.5322-2.2339,14.4227-6.2031,17.7892-12.2637c1.9791-3.5628,3.2355-8.2595,3.2355-13.0496C53.875,16.8274,48.7822,11,42.5,11
			s-11.375,5.8274-11.375,14.1173c0,8.424,3.814,16.5997,8.911,18.6514c-0.0243,0.1342-0.1776,0.1569-0.3925,0.1152
			c-3.389-0.6582-5.9988-3.1136-8.0365-5.8593c-2.0438,1.5209-4.175,3.2035-5.1853,4.3072C24.1806,44.7799,23,54,23,54h39
			C62,54,60.8193,44.7799,58.5782,42.3317z M33.8153,30.5625c-0.5305-2.9881-0.456-5.4825-0.0461-7.8989
			c2.6867-1.5818,5.605-2.0494,8.7307-2.0494c3.1142,0,6.0375,0.4639,8.7318,2.0494c0.4086,2.413,0.4839,4.9073-0.0472,7.8987
			c-0.6389,3.5999-3.479,8.9554-8.6846,8.9554C37.2944,39.5178,34.4543,34.1622,33.8153,30.5625z"/>
		<path fill="#FFFFFF" d="M49.3205,30.2482c0.6449-3.6322,0.1806-6.3741,0.1806-6.3741s-2.3109-1.36-7.0012-1.36
			c-4.6904,0-7.0005,1.36-7.0005,1.36s-0.465,2.7419,0.1799,6.3741c0.4868,2.7428,2.6832,7.3698,6.8206,7.3698
			C46.6381,37.618,48.8337,32.991,49.3205,30.2482z"/>
	</g>
</g>
</svg>
