<?xml version="1.0" encoding="utf-8"?>
<!-- Generator: Adobe Illustrator 19.1.0, SVG Export Plug-In . SVG Version: 6.00 Build 0)  -->
<svg version="1.2" baseProfile="tiny" xmlns="http://www.w3.org/2000/svg" xmlns:xlink="http://www.w3.org/1999/xlink" x="0px"
	 y="0px" width="64px" height="64px" viewBox="0 0 64 64" xml:space="preserve">
<g id="_x36_4px_Box">
	<rect width="64" height="64"/>
</g>
<g id="Icon">
	<g>
		<path fill="#FFFFFF" d="M49,8H30.8284c-0.5305,0-1.0391,0.2107-1.4142,0.5857L14.5858,23.4142
			C14.2107,23.7893,14,24.298,14,24.8284V55c0,0.5522,0.4477,1,1,1h34c0.5523,0,1-0.4478,1-1V9C50,8.4478,49.5523,8,49,8z
			 M15.6341,25H30c0.5523,0,1-0.4478,1-1V9.634c0,0,0.2226-0.0991,0.3599,0.2311c1.9427,4.6738,2.7015,8.9083,2.7568,17.2303
			c0.0037,0.5556-0.4556,1.0149-1.0112,1.0112c-8.3229-0.0546-12.5666-0.804-17.2404-2.7468C15.5349,25.2227,15.6341,25,15.6341,25z
			 M26,48h-6v-3h6V48z M26,42h-6v-3h6V42z M26,36h-6v-3h6V36z M44,48H28v-3h16V48z M44,42H28v-3h16V42z M44,36H28v-3h16V36z M44,26
			h-8v-3h8V26z"/>
	</g>
</g>
</svg>
