<?xml version="1.0" encoding="utf-8"?>
<!-- Generator: Adobe Illustrator 19.1.0, SVG Export Plug-In . SVG Version: 6.00 Build 0)  -->
<svg version="1.2" baseProfile="tiny" xmlns="http://www.w3.org/2000/svg" xmlns:xlink="http://www.w3.org/1999/xlink" x="0px"
	 y="0px" width="64px" height="64px" viewBox="0 0 64 64" xml:space="preserve">
<g id="Box">
	<rect width="64" height="64"/>
</g>
<g id="Icon">
	<g>
		<polygon fill="#FFFFFF" points="5,5 11,5 11,2 2,2 2,11 5,11 		"/>
		<polygon fill="#FFFFFF" points="5,53 2,53 2,62 11,62 11,59 5,59 		"/>
		<polygon fill="#FFFFFF" points="53,2 53,5 59,5 59,11 62,11 62,2 		"/>
		<polygon fill="#FFFFFF" points="59,59 53,59 53,62 62,62 62,53 59,53 		"/>
		<polygon fill="#FFFFFF" points="62,37 62,31 57,34 		"/>
		<polygon fill="#FFFFFF" points="2,31 2,37 7,34 		"/>
		<path fill="#FFFFFF" d="M14,55c0,0.5522,0.4477,1,1,1h34c0.5523,0,1-0.4478,1-1V38H14V55z"/>
		<path fill="#FFFFFF" d="M8,32v4h48v-4h-6v-7.1716c0-0.5304-0.2107-1.0391-0.5858-1.4142L34.5858,8.5857
			C34.2107,8.2107,33.702,8,33.1716,8H15c-0.5523,0-1,0.4478-1,1v23H8z M32.6401,9.8651C32.7774,9.5349,33,9.634,33,9.634V24
			c0,0.5523,0.4477,1,1,1h14.3659c0,0,0.0992,0.2227-0.231,0.3599c-4.6738,1.9428-8.9175,2.6923-17.2404,2.7468
			c-0.5556,0.0037-1.0149-0.4556-1.0112-1.0112C29.9385,18.7734,30.6973,14.5389,32.6401,9.8651z"/>
	</g>
</g>
</svg>
