<?xml version="1.0" encoding="utf-8"?>
<!-- Generator: Adobe Illustrator 21.0.2, SVG Export Plug-In . SVG Version: 6.00 Build 0)  -->
<!DOCTYPE svg PUBLIC "-//W3C//DTD SVG 1.1//EN" "http://www.w3.org/Graphics/SVG/1.1/DTD/svg11.dtd">
<svg version="1.1" xmlns="http://www.w3.org/2000/svg" xmlns:xlink="http://www.w3.org/1999/xlink" x="0px" y="0px" width="24px"
	 height="24px" viewBox="0 0 24 24" style="enable-background:new 0 0 24 24;" xml:space="preserve">
<style type="text/css">
	.st0{fill:none;}
	.st1{fill:#39870C;}
	.st2{fill:#D52B1E;}
	.st3{display:none;}
	.st4{display:none;fill:#FFFFFF;}
</style>
<g id="box">
	<g>
		<rect class="st0" width="24" height="24"/>
	</g>
</g>
<g id="icon">
	<g>
		<path class="st1" d="M21.6,4.2c-0.1-0.9-0.8-1.6-1.7-1.7C17.2,2,12.9,2,12,2c-0.9,0-5.2,0-7.8,0.4C3.3,2.6,2.6,3.3,2.4,4.2
			C2,6.8,2,11.1,2,12s0,5.2,0.4,7.8c0.1,0.9,0.8,1.6,1.7,1.7C6.8,22,11.1,22,12,22c0.9,0,5.2,0,7.8-0.4c0.9-0.2,1.6-0.8,1.7-1.7
			c0.4-2.6,0.4-7,0.4-7.8C22,9.4,22,6.8,21.6,4.2z M10.8,6.1l2.6-0.3l-0.3,5.7V14h-2.3V6.1z M12,18.9c-1.1,0-1.8-0.6-1.8-1.8
			c0-1.1,0.6-1.9,1.7-1.9c1.1,0,1.8,0.7,1.8,1.9C13.8,18.1,13.2,18.9,12,18.9z"/>
	</g>
</g>
</svg>
