<?xml version="1.0" encoding="utf-8"?>
<!-- Generator: Adobe Illustrator 21.0.2, SVG Export Plug-In . SVG Version: 6.00 Build 0)  -->
<!DOCTYPE svg PUBLIC "-//W3C//DTD SVG 1.1//EN" "http://www.w3.org/Graphics/SVG/1.1/DTD/svg11.dtd">
<svg version="1.1" xmlns="http://www.w3.org/2000/svg" xmlns:xlink="http://www.w3.org/1999/xlink" x="0px" y="0px" width="24px"
	 height="24px" viewBox="0 0 24 24" style="enable-background:new 0 0 24 24;" xml:space="preserve">
<style type="text/css">
	.st0{fill:none;}
	.st1{fill:#39870C;}
	.st2{fill:#D52B1E;}
	.st3{display:none;}
	.st4{display:none;fill:#FFFFFF;}
</style>
<g id="box">
	<g>
		<rect class="st0" width="24" height="24"/>
	</g>
</g>
<g id="icon">
	<g>
		<path class="st2" d="M22.8,19.3L13.6,3.1c-0.7-1.2-2.5-1.2-3.2,0L1.2,19.3C0.6,20.5,1.4,22,2.8,22h18.4
			C22.6,22,23.4,20.5,22.8,19.3z M10.9,8.1l2.5-0.3l-0.3,4.7V15h-2.3V8.1z M12,19.8c-1.1,0-1.7-0.6-1.7-1.8c0-1,0.6-1.9,1.7-1.9
			c1.1,0,1.7,0.7,1.7,1.9C13.7,19,13.1,19.8,12,19.8z"/>
	</g>
</g>
</svg>
